<svg width="24" height="24" xmlns="http://www.w3.org/2000/svg">
<path d="M22.5764 6.3307C22.8848 6.97126 22.88 6.92657 23.0121 7.23177C24.084 9.70698 24.2944 12.4819 23.5912 15.1061C22.8013 18.0539 20.918 20.59 18.3245 22.1983C15.731 23.8067 12.6221 24.3665 9.63041 23.7638C6.63875 23.1612 3.98909 21.4413 2.22057 18.9542C0.452045 16.4672 -0.302459 13.3997 0.110574 10.376C0.523608 7.35235 2.07315 4.59963 4.4439 2.67797C6.81465 0.756311 9.8285 -0.189898 12.8722 0.0318697C15.5818 0.229295 18.1338 1.33916 20.1198 3.16434C20.6612 3.66188 20.5908 4.13412 20.1425 4.55563L6.85376 17.8537C6.6585 18.049 6.34192 18.049 6.14666 17.8537C5.95139 17.6585 5.95139 17.3419 6.14666 17.1466L19.4052 3.88805C17.5913 2.23211 15.2662 1.22534 12.7983 1.04553C10.0124 0.842544 7.25384 1.70861 5.08388 3.46752C2.91392 5.22642 1.49562 7.746 1.11757 10.5136C0.739518 13.2812 1.43012 16.0888 3.04885 18.3653C4.66759 20.6417 7.09283 22.2159 9.83111 22.7675C12.5694 23.3191 15.415 22.8067 17.7888 21.3346C20.1627 19.8624 21.8865 17.5412 22.6095 14.8431C23.3325 12.145 23.0004 9.27276 21.6807 6.81088C21.2971 6.09537 22.2681 5.69015 22.5764 6.3307Z"/>
</svg>
