<svg width="22" height="22" viewBox="0 0 22 22" fill="none" xmlns="http://www.w3.org/2000/svg">
<path fill-rule="evenodd" clip-rule="evenodd" d="M21 11C21 16.5228 16.5228 21 11 21C5.47715 21 1 16.5228 1 11C1 5.47715 5.47715 1 11 1C16.5228 1 21 5.47715 21 11ZM6.14664 15.8537C6.3419 16.049 6.65849 16.049 6.85375 15.8537L17.7037 4.9948C19.1316 6.58769 20 8.69243 20 11C20 15.9706 15.9706 20 11 20C6.02944 20 2 15.9706 2 11C2 6.02944 6.02944 2 11 2C13.3055 2 15.4084 2.86686 17.0008 4.29241L6.14664 15.1466C5.95138 15.3419 5.95138 15.6585 6.14664 15.8537Z" fill="#505050"/>
</svg>
