<svg width="22" height="22" viewBox="0 0 22 22" fill="none" xmlns="http://www.w3.org/2000/svg">
<path d="M5.17708 5.46992C4.99267 5.2855 4.68488 5.2943 4.48962 5.48956C4.29436 5.68482 4.28556 5.99261 4.46998 6.17702L9.79292 11.5L4.46998 16.8229C4.28556 17.0073 4.29436 17.3151 4.48962 17.5104C4.68488 17.7056 4.99267 17.7144 5.17708 17.53L10.5 12.2071L15.823 17.53C16.0074 17.7144 16.3152 17.7056 16.5104 17.5104C16.7057 17.3151 16.7145 17.0073 16.5301 16.8229L11.2071 11.5L16.5301 6.17702C16.7145 5.99261 16.7057 5.68482 16.5104 5.48956C16.3152 5.2943 16.0074 5.2855 15.823 5.46992L10.5 10.7929L5.17708 5.46992Z" fill="#505050"/>
</svg>
