<svg width="22" height="22" viewBox="0 0 22 22" fill="none" xmlns="http://www.w3.org/2000/svg">
<path fill-rule="evenodd" clip-rule="evenodd" d="M5.95967 19.1102C6.01581 19.6167 6.44393 20 6.95358 20H14.0371C14.5468 20 14.9749 19.6167 15.031 19.1102L15.8882 9.37652L16.4867 9.5373C17.0186 9.68015 17.5652 9.36375 17.7077 8.83058L17.9658 7.86518C18.1083 7.33201 17.7927 6.78397 17.2608 6.64111L13.86 5.99623L13.9052 5.82712C14.1902 4.76078 13.559 3.66471 12.4953 3.37898L11.3398 3.06861C10.2761 2.78288 9.1828 3.4157 8.89779 4.48204L8.85258 4.65118L5.51327 4.02282C4.98143 3.87996 4.43476 4.19637 4.29225 4.72954L4.03422 5.69493C3.89171 6.22811 4.20733 6.77614 4.73918 6.919L9.78409 8.00551H4.95056L5.95967 19.1102ZM6.06443 9.00496L6.95062 19.0005H14.0401L14.9141 9.11487L14.5169 9.00496H6.06443ZM5.25524 4.98822L4.99721 5.95362L16.7448 8.57189L17.0028 7.6065L5.25524 4.98822ZM12.2373 4.34437L11.0818 4.034C10.55 3.89114 10.0033 4.20755 9.86078 4.74072L9.81557 4.90985L12.897 5.73756L12.9422 5.56844C13.0847 5.03527 12.7691 4.48724 12.2373 4.34437Z" fill="#505050"/>
</svg>
