<svg width="24" height="24" xmlns="http://www.w3.org/2000/svg">
<path fill-rule="evenodd" clip-rule="evenodd" d="M6.95967 20.1102C7.01581 20.6167 7.44393 21 7.95358 21H15.0371C15.5468 21 15.9749 20.6167 16.031 20.1102L16.8882 10.3765L17.4867 10.5373C18.0186 10.6802 18.5652 10.3637 18.7077 9.83058L18.9658 8.86518C19.1083 8.33201 18.7927 7.78397 18.2608 7.64111L14.86 6.99623L14.9052 6.82712C15.1902 5.76078 14.559 4.66471 13.4953 4.37898L12.3398 4.06861C11.2761 3.78288 10.1828 4.4157 9.89779 5.48204L9.85258 5.65118L6.51327 5.02282C5.98143 4.87996 5.43476 5.19637 5.29225 5.72954L5.03422 6.69493C4.89171 7.22811 5.20733 7.77614 5.73918 7.919L10.7841 9.00551H5.95056L6.95967 20.1102ZM7.06443 10.005L7.95062 20.0005H15.0401L15.9141 10.1149L7.06443 10.005ZM6.25524 5.98822L5.99721 6.95362L17.7448 9.57189L18.0028 8.6065L6.25524 5.98822ZM13.2373 5.34437L12.0818 5.034C11.55 4.89114 11.0033 5.20755 10.8608 5.74072L10.8156 5.90985L13.897 6.73756L13.9422 6.56844C14.0847 6.03527 13.7691 5.48724 13.2373 5.34437Z"/>
</svg>
