<svg width="22" height="22" viewBox="0 0 22 22" fill="none" xmlns="http://www.w3.org/2000/svg">
<path fill-rule="evenodd" clip-rule="evenodd" d="M10.0006 12.0034H11.5002C12.16 12.0034 12.16 11.001 11.5002 11.001H9.4632L4.29464 3.99956H16.501C17.1608 3.99956 17.1608 2.99721 16.501 2.99721H3.99972V1.99985H19.0003V3.3112C19.0003 3.52762 18.9301 3.7382 18.8002 3.91131L12.9994 11.6434V21.0019L10.612 19.3194C10.5711 19.2906 10.5276 19.2657 10.4847 19.2401C10.1844 19.0608 9.99806 18.7372 9.99815 18.3837C9.9986 16.4791 10.0006 13.1804 10.0006 12.0034ZM13.9992 12.0009L19.6 4.53289C19.8596 4.1867 20 3.76564 20 3.33291V1.99985C20 1.44993 19.5526 1 19.0003 1H3.99972C3.44738 1 3 1.44993 3 1.99985V3.33291C3 3.76564 3.14035 4.1867 3.39998 4.53289L9.00083 12.0009C9.00083 13.1965 8.99918 16.0266 8.99856 18.2109C8.99837 18.8926 9.34513 19.5231 9.91105 19.8895C10.0048 19.9502 10.1001 20.0091 10.1885 20.0774L12.2921 21.7043C13.1016 22.3242 13.9992 21.8868 13.9992 20.9969V12.0009Z" fill="#505050"/>
</svg>
