<svg width="65" height="65" viewBox="0 0 65 65" fill="none" xmlns="http://www.w3.org/2000/svg">
<path fill-rule="evenodd" clip-rule="evenodd" d="M12.1463 13.1464C12.3416 12.9511 12.6582 12.9511 12.8535 13.1463L17.854 18.1464C18.0493 18.3416 18.0493 18.6582 17.854 18.8535C17.6588 19.0488 17.3422 19.0488 17.1469 18.8535L12.1464 13.8535C11.9511 13.6582 11.9511 13.3417 12.1463 13.1464Z" fill="#777777"/>
<path fill-rule="evenodd" clip-rule="evenodd" d="M5 32.5C5 32.2239 5.22386 32 5.5 32H12.5C12.7761 32 13 32.2239 13 32.5C13 32.7761 12.7761 33 12.5 33H5.5C5.22386 33 5 32.7761 5 32.5Z" fill="#777777"/>
<path fill-rule="evenodd" clip-rule="evenodd" d="M52.8536 13.1464C52.6584 12.9511 52.3418 12.9511 52.1465 13.1463L47.146 18.1464C46.9507 18.3416 46.9507 18.6582 47.146 18.8535C47.3412 19.0488 47.6578 19.0488 47.8531 18.8535L52.8536 13.8535C53.0489 13.6582 53.0489 13.3417 52.8536 13.1464Z" fill="#777777"/>
<path fill-rule="evenodd" clip-rule="evenodd" d="M60 32.5C60 32.2239 59.7761 32 59.5 32H52.5C52.2239 32 52 32.2239 52 32.5C52 32.7761 52.2239 33 52.5 33H59.5C59.7761 33 60 32.7761 60 32.5Z" fill="#777777"/>
<path fill-rule="evenodd" clip-rule="evenodd" d="M28.2727 15.1911L19.6075 32.1883C19.202 32.9837 19.0422 33.8818 19.1486 34.7683L20.3834 45.058C20.4241 45.397 20.315 45.7319 20.0932 45.9801C19.5826 45.7442 18.8815 45.5494 18.3816 45.478C16.9802 46.4123 14 48.5 12.1051 49.7993C11.7272 50.0772 11.4835 50.5334 11.5192 51.0351C11.5393 51.3172 11.5749 51.5994 11.6249 51.8805L6.21729 55.5876C5.98952 55.7437 5.93146 56.055 6.0876 56.2827C6.24374 56.5105 6.55495 56.5685 6.78271 56.4124L11.8727 52.923C12.4063 54.7334 13.455 56.5166 14.7715 57.9927C16.042 59.4174 17.5897 60.5867 19.2116 61.2129L17.1583 63.135C16.9567 63.3237 16.9463 63.6401 17.135 63.8417C17.3237 64.0433 17.6401 64.0537 17.8417 63.865L20.3146 61.5501C20.7049 61.6385 21.0958 61.6952 21.4839 61.7159C21.7989 61.7327 22.1045 61.6381 22.3542 61.4569C24 60 26.7726 57.437 28.5964 55.6107C28.5 55 28.0289 54.3341 28.0289 54.3341L29.6447 52.8336C30.9799 51.5938 31.9553 50.0421 32.5 48.3409C33.0447 50.0421 34.0201 51.5938 35.3553 52.8336L36.9711 54.3341C36.9711 54.3341 36.5 55 36.4036 55.6107C38.2274 57.437 41.5 60.5 42.6458 61.4569C42.8955 61.6381 43.2011 61.7327 43.5161 61.7159C43.9042 61.6952 44.2951 61.6385 44.6854 61.5501L47.1583 63.865C47.3599 64.0537 47.6763 64.0433 47.865 63.8417C48.0537 63.6401 48.0433 63.3237 47.8417 63.135L45.7884 61.2129C47.4103 60.5867 48.958 59.4174 50.2285 57.9927C51.545 56.5166 52.5937 54.7334 53.1273 52.923L58.2173 56.4124C58.445 56.5685 58.7563 56.5105 58.9124 56.2827C59.0685 56.055 59.0105 55.7437 58.7827 55.5876L53.3751 51.8805C53.4251 51.5994 53.4607 51.3172 53.4808 51.0351C53.5165 50.5334 53.2728 50.0772 52.8949 49.7993C51 48.5 48.0198 46.4123 46.6184 45.478C46.1185 45.5494 45.4174 45.7442 44.9068 45.9801C44.685 45.7319 44.5759 45.397 44.6166 45.058L45.8514 34.7683C45.9578 33.8818 45.798 32.9837 45.3925 32.1883L36.7273 15.1911C35.8116 13.3949 33.5179 13.4767 32.5 14.7991C31.4821 13.4767 29.1884 13.3949 28.2727 15.1911ZM32 16.3265C32 14.75 29.8797 14.2408 29.1636 15.6453L20.4984 32.6425C20.183 33.2612 20.0587 33.9597 20.1415 34.6492L21.3763 44.9389C21.4723 45.739 21.1178 46.5266 20.4552 46.9853L19.4844 47.6574C20.0612 48.9975 21.0719 50.3492 22.3089 51.5385C23.5675 52.7487 25.036 53.7674 26.4649 54.4217L28.9643 52.1008C30.9001 50.3033 32 47.781 32 45.1393V34.4747C32 33.5694 31.8161 32.6736 31.4595 31.8415L30.8878 30.5076C30.7559 30.1997 30.4531 30 30.118 30C29.9286 30 29.7555 30.107 29.6708 30.2764L28.4751 32.6679C28.1627 33.2927 28 33.9817 28 34.6803V41.5C28 41.7761 27.7761 42 27.5 42C27.2239 42 27 41.7761 27 41.5V34.6803C27 33.8265 27.1988 32.9844 27.5807 32.2207L28.7764 29.8292C29.0305 29.321 29.5499 29 30.118 29H30.5664L31.6269 21.5759C31.8753 19.8371 32 18.0829 32 16.3265ZM27.0785 55.7148C25.4319 55.0163 23.037 53.6259 21.6158 52.2594C20.1967 50.8949 18.7593 48.4724 18.1496 46.8349C16.663 47.8281 14.405 49.3492 12.6975 50.6049C12.5683 50.6999 12.5077 50.8378 12.5167 50.964C12.5411 51.3069 12.5921 51.6531 12.6677 52.0003C13.071 53.8517 14.122 55.762 15.5178 57.3271C16.9156 58.8944 18.6211 60.0736 20.2983 60.5166C20.7195 60.6278 21.1342 60.6958 21.5372 60.7173C21.6165 60.7215 21.6971 60.6982 21.767 60.6475C23.1163 59.6685 25.2655 57.5294 27.0785 55.7148ZM33 16.3265C33 18.0829 33.1247 19.8371 33.3731 21.5759L34.4336 29H34.882C35.4501 29 35.9695 29.321 36.2236 29.8292L37.4193 32.2207C37.8012 32.9844 38 33.8265 38 34.6803V41.5C38 41.7761 37.7761 42 37.5 42C37.2239 42 37 41.7761 37 41.5V34.6803C37 33.9817 36.8373 33.2927 36.5249 32.6679L35.3292 30.2764C35.2445 30.107 35.0714 30 34.882 30C34.5469 30 34.2441 30.1997 34.1122 30.5076L33.5405 31.8415C33.1839 32.6736 33 33.5694 33 34.4747V45.1393C33 47.781 34.0999 50.3033 36.0357 52.1008L38.535 54.4217C39.9639 53.7674 41.4325 52.7487 42.6911 51.5385C43.9281 50.3492 44.9388 48.9975 45.5156 47.6574L44.5448 46.9853C43.8822 46.5266 43.5277 45.739 43.6237 44.9389L44.8585 34.6492C44.9413 33.9597 44.817 33.2612 44.5016 32.6425L35.8364 15.6453C35.1203 14.2408 33 14.75 33 16.3265ZM37.9215 55.7148C39.5681 55.0163 41.963 53.6259 43.3842 52.2594C44.8033 50.8949 45.9871 49.2854 46.5968 47.6478C46.6971 47.3782 46.7823 47.1068 46.8504 46.8349C48.337 47.8281 50.595 49.3492 52.3025 50.6049C52.4317 50.6999 52.4923 50.8378 52.4833 50.964C52.4589 51.3069 52.4079 51.6531 52.3323 52.0003C51.929 53.8517 50.878 55.762 49.4822 57.3271C48.0845 58.8944 46.3789 60.0736 44.7017 60.5166C44.2805 60.6278 43.8658 60.6958 43.4628 60.7173C43.3835 60.7215 43.3029 60.6982 43.233 60.6475C41.8837 59.6685 39.7345 57.5294 37.9215 55.7148ZM32.5 22.5355L33.3266 28.3215C33.4303 29.0478 33.3323 29.7886 33.0434 30.4629L32.5 31.7307L31.9566 30.4629C31.6677 29.7886 31.5697 29.0478 31.6734 28.3215L32.5 22.5355Z" fill="#777777"/>
<path d="M33 3.5C33 3.22386 32.7761 3 32.5 3C32.2239 3 32 3.22386 32 3.5V10.5C32 10.7761 32.2239 11 32.5 11C32.7761 11 33 10.7761 33 10.5V3.5Z" fill="#777777"/>
<path fill-rule="evenodd" clip-rule="evenodd" d="M32.4996 22.5356L33.3262 28.3216C33.4299 29.0479 33.3319 29.7887 33.0429 30.463L32.4996 31.7308L31.9562 30.463C31.6672 29.7887 31.5693 29.0479 31.673 28.3216L32.4996 22.5356Z" fill="#F3E672"/>
<path fill-rule="evenodd" clip-rule="evenodd" d="M12.1463 13.1464C12.3416 12.9511 12.6582 12.9511 12.8535 13.1463L17.854 18.1464C18.0493 18.3416 18.0493 18.6582 17.854 18.8535C17.6588 19.0488 17.3422 19.0488 17.1469 18.8535L12.1464 13.8535C11.9511 13.6582 11.9511 13.3417 12.1463 13.1464Z" fill="#F3E672"/>
<path fill-rule="evenodd" clip-rule="evenodd" d="M5 32.5C5 32.2239 5.22386 32 5.5 32H12.5C12.7761 32 13 32.2239 13 32.5C13 32.7761 12.7761 33 12.5 33H5.5C5.22386 33 5 32.7761 5 32.5Z" fill="#F3E672"/>
<path fill-rule="evenodd" clip-rule="evenodd" d="M52.8536 13.1464C52.6584 12.9511 52.3418 12.9511 52.1465 13.1463L47.146 18.1464C46.9507 18.3416 46.9507 18.6582 47.146 18.8535C47.3412 19.0488 47.6578 19.0488 47.8531 18.8535L52.8536 13.8535C53.0489 13.6582 53.0489 13.3417 52.8536 13.1464Z" fill="#F3E672"/>
<path fill-rule="evenodd" clip-rule="evenodd" d="M60 32.5C60 32.2239 59.7761 32 59.5 32H52.5C52.2239 32 52 32.2239 52 32.5C52 32.7761 52.2239 33 52.5 33H59.5C59.7761 33 60 32.7761 60 32.5Z" fill="#F3E672"/>
<path d="M33 3.5C33 3.22386 32.7761 3 32.5 3C32.2239 3 32 3.22386 32 3.5V10.5C32 10.7761 32.2239 11 32.5 11C32.7761 11 33 10.7761 33 10.5V3.5Z" fill="#F3E672"/>
<path fill-rule="evenodd" clip-rule="evenodd" d="M27.0783 55.7149C25.4317 55.0164 23.0368 53.6259 21.6156 52.2594C20.1965 50.8949 18.7591 48.4725 18.1494 46.8349C16.6628 47.8281 14.4048 49.3492 12.6973 50.6049C12.5681 50.7 12.5075 50.8378 12.5165 50.9641C12.5409 51.307 12.5919 51.6531 12.6675 52.0004C13.0708 53.8518 14.1218 55.7621 15.5176 57.3271C16.9154 58.8945 18.6209 60.0736 20.2981 60.5166C20.7193 60.6279 21.134 60.6958 21.537 60.7174C21.6163 60.7216 21.6969 60.6982 21.7668 60.6475C23.1162 59.6686 25.2653 57.5294 27.0783 55.7149ZM37.9213 55.7149C39.5679 55.0164 41.9628 53.6259 43.384 52.2594C44.8031 50.8949 45.9869 49.2854 46.5966 47.6479C46.6969 47.3782 46.7821 47.1069 46.8502 46.8349C48.3368 47.8281 50.5948 49.3492 52.3023 50.6049C52.4315 50.7 52.4921 50.8378 52.4831 50.9641C52.4587 51.307 52.4077 51.6531 52.3321 52.0004C51.9288 53.8518 50.8778 55.7621 49.482 57.3271C48.0843 58.8945 46.3787 60.0736 44.7015 60.5166C44.2803 60.6279 43.8656 60.6958 43.4626 60.7174C43.3833 60.7216 43.3027 60.6982 43.2328 60.6475C41.8835 59.6686 39.7343 57.5294 37.9213 55.7149Z" fill="#B6EDA6"/>
<path fill-rule="evenodd" clip-rule="evenodd" d="M27.0783 55.715C25.5 54.5001 24.5 56.0001 23.5 57.0001C22.7094 57.7906 22 58.0001 19.5 57.5001C17 57.0001 14.4048 49.3493 12.6973 50.605C12.5681 50.7001 12.5075 50.838 12.5165 50.9642C12.5409 51.3071 12.5919 51.6532 12.6675 52.0005C13.0708 53.8519 14.1218 55.7622 15.5176 57.3273C16.9154 58.8946 18.6209 60.0737 20.2981 60.5167C20.7193 60.628 21.134 60.696 21.537 60.7175C21.6163 60.7217 21.6969 60.6983 21.7668 60.6476C23.1162 59.6687 25.2653 57.5295 27.0783 55.715ZM37.9213 55.715C40 54.5 40.6296 56.8768 42.5 57.5003C44 58.0003 45.7644 57.7359 47 56.5003C49 54.5003 49.5276 53.4175 50 52.0003C50.5 50.5002 50.4283 49.2269 52.3023 50.605C52.4315 50.7001 52.4921 50.838 52.4831 50.9642C52.4587 51.3071 52.4077 51.6532 52.3321 52.0005C51.9288 53.8519 50.8778 55.7622 49.482 57.3273C48.0843 58.8946 46.3787 60.0737 44.7015 60.5167C44.2803 60.628 43.8656 60.696 43.4626 60.7175C43.3833 60.7217 43.3027 60.6983 43.2328 60.6476C41.8835 59.6687 39.7343 57.5295 37.9213 55.715Z" fill="#8ACA77"/>
<path d="M14.7715 57.9926C13.4551 56.5165 12.4064 54.7333 11.8728 52.923L8.9668 54.9151C11.6888 57.7721 14.9258 60.134 18.5288 61.8521L19.2116 61.2129C17.5897 60.5867 16.0421 59.4174 14.7715 57.9926Z" fill="#F0DDAB"/>
<path d="M53.1273 52.923C52.5938 54.7333 51.545 56.5165 50.2286 57.9926C48.958 59.4174 47.4104 60.5867 45.7885 61.2129L46.4713 61.8521C50.0743 60.134 53.3113 57.7721 56.0333 54.9151L53.1273 52.923Z" fill="#F0DDAB"/>
<path fill-rule="evenodd" clip-rule="evenodd" d="M32.0001 16.3265C32.0001 14.75 29.8797 14.2407 29.1637 15.6452L20.4984 32.6425C20.183 33.2611 20.0588 33.9596 20.1415 34.6491L21.3763 44.9388C21.4723 45.7389 21.1178 46.5265 20.4553 46.9852L19.4844 47.6574C20.0612 48.9975 21.072 50.3491 22.309 51.5385C23.5676 52.7487 25.0361 53.7673 26.465 54.4216L28.9643 52.1008C30.9001 50.3033 32.0001 47.7809 32.0001 45.1393V34.4746C32.0001 33.5694 31.8162 32.6735 31.4596 31.8415L30.8879 30.5076C30.7559 30.1996 30.4531 30 30.1181 30C29.9287 30 29.7556 30.107 29.6709 30.2764L28.4751 32.6678C28.1627 33.2927 28.0001 33.9817 28.0001 34.6803V41.5C28.0001 41.7761 27.7762 42 27.5001 42C27.2239 42 27.0001 41.7761 27.0001 41.5V34.6803C27.0001 33.8265 27.1989 32.9843 27.5807 32.2206L28.7764 29.8291C29.0305 29.321 29.5499 29 30.1181 29H30.5664L31.627 21.5758C31.8754 19.8371 32.0001 18.0829 32.0001 16.3265ZM33.0001 16.3265C33.0001 18.0829 33.1247 19.8371 33.3731 21.5758L34.4337 29H34.882C35.4502 29 35.9696 29.321 36.2237 29.8291L37.4194 32.2206C37.8013 32.9843 38.0001 33.8265 38.0001 34.6803V41.5C38.0001 41.7761 37.7762 42 37.5001 42C37.2239 42 37.0001 41.7761 37.0001 41.5V34.6803C37.0001 33.9817 36.8374 33.2927 36.525 32.6678L35.3292 30.2764C35.2445 30.107 35.0714 30 34.882 30C34.547 30 34.2442 30.1996 34.1122 30.5076L33.5405 31.8415C33.1839 32.6735 33.0001 33.5694 33.0001 34.4746V45.1393C33.0001 47.7809 34.1 50.3033 36.0358 52.1008L38.5351 54.4216C39.964 53.7673 41.4325 52.7487 42.6911 51.5385C43.9281 50.3491 44.9389 48.9975 45.5157 47.6574L44.5448 46.9852C43.8823 46.5265 43.5278 45.7389 43.6238 44.9388L44.8586 34.6491C44.9413 33.9596 44.8171 33.2611 44.5017 32.6425L35.8364 15.6452C35.1204 14.2407 33.0001 14.75 33.0001 16.3265Z" fill="#F0DDAB"/>
<path d="M14.7715 57.9926C13.4551 56.5165 12.4064 54.7333 11.8728 52.923L8.9668 54.9151C11.6888 57.7721 14.9258 60.134 18.5288 61.8521L19.2116 61.2129C17.5897 60.5867 16.0421 59.4174 14.7715 57.9926Z" fill="#D2BF8C"/>
<path d="M53.1273 52.923C52.5938 54.7333 51.545 56.5165 50.2286 57.9926C48.958 59.4174 47.4104 60.5867 45.7885 61.2129L46.4713 61.8521C50.0743 60.134 53.3113 57.7721 56.0333 54.9151L53.1273 52.923Z" fill="#D2BF8C"/>
<path d="M44.8586 34.6491C44.9413 33.9596 44.8171 33.2611 44.5017 32.6425C43.1545 30 42.5 28.5 42 30.2764C41.4474 32.2396 43.2822 32.1952 43 35C42 44.9388 42 47.6574 39.5 49.5C38.6 50.1633 34.1 50.3033 36.0358 52.1008L38.5351 54.4216C39.964 53.7673 41.4325 52.7487 42.6911 51.5385C43.9281 50.3491 44.9389 48.9975 45.5157 47.6574L44.5448 46.9852C43.8823 46.5265 43.5278 45.7389 43.6238 44.9388L44.8586 34.6491Z" fill="#D2BF8C"/>
<path d="M29.1637 15.6452C29.8797 14.2407 32.0001 14.75 32.0001 16.3265C32.0001 18.0829 31.8754 19.8371 31.627 21.5758L30.5664 29H30.1181C29.5499 29 29.0305 29.321 28.7764 29.8291C28 29.5 28.7236 27.1939 29 25C29.0625 24.5039 29.5 23.5 30 21C30.3744 19.1282 30.5 17 29.1637 15.6452Z" fill="#D2BF8C"/>
<path d="M26 50C28.8846 50.8242 29.5 48.5 30 46.5C30.5 44.5 31 41.5 31 35.5C30.7528 32.6678 30.5 31.5 28.4751 32.6678C28.6305 32.3572 29.6709 30.2764 29.6709 30.2764C29.7556 30.107 29.9287 30 30.1181 30C30.4531 30 30.7559 30.1996 30.8879 30.5076L31.4596 31.8415C31.8162 32.6735 32.0001 33.5694 32.0001 34.4746V45.1393C32.0001 47.7809 30.9001 50.3033 28.9643 52.1008L26.465 54.4216C25.0361 53.7673 23.5676 52.7487 22.309 51.5385C17.851 47.2521 22.5 49 26 50Z" fill="#D2BF8C"/>
</svg>
