<svg width="230" height="230">
    <path d="M80.159 3.579c-4.717 1.715-13.508 7.61-17.367 11.684-1.823 2.037-4.717 6.325-6.433 9.54-2.787 5.468-3.001 6.861-3.001 17.795l.107 11.899-4.932-1.501c-5.574-1.715-12.22-1.072-16.187 1.608-5.682 3.752-15.009 12.435-17.26 15.972-2.037 3.43-2.144 3.86-.43 5.467 1.716 1.715 2.038 1.715 5.254-.214 9.648-5.575 11.363-6.218 15.759-5.467 2.358.428 4.288 1.179 4.288 1.822 0 .536-2.573 3.323-5.575 6.003C23.02 88.049 1.364 110.774.72 113.347c-.857 3.43 7.933 38.912 10.4 41.806.642.858 2.572 1.501 4.18 1.501 1.608 0 3.43.643 4.074 1.393.643.751 3.86 12.328 7.183 25.62 6.325 25.727 9.433 33.552 14.9 37.626 7.827 5.788 5.683 5.574 66.039 5.895 30.982.107 58.426.322 61.106.429 6.433.429 11.257-1.822 14.044-6.324 2.466-3.967 3.109-6.111 6.325-22.19 2.573-12.327 8.255-33.123 10.292-37.197 1.179-2.358 2.358-2.894 7.29-3.43 8.147-.857 11.363-2.573 15.33-8.468 4.824-7.29 9.327-30.015 7.504-37.519-.965-3.859-5.682-9.433-21.334-25.083l-13.936-14.15 12.221-12.113c8.148-8.04 13.079-13.935 14.58-17.259 6.218-13.506-.429-24.976-14.258-24.762-8.577 0-15.33 4.181-19.19 11.792-3.537 6.968-1.822 8.79 9.649 10.612 4.395.643 4.395.643 6.11-3.752 2.144-5.145 3.967-5.681 3.967-1.179s-3.323 9.005-12.007 16.615c-9.327 8.147-11.042 9.005-17.153 9.112-5.789 0-5.789.107-3.537-9.112 2.144-8.79 2.036-13.72-.536-22.832-3.86-13.936-9.434-20.153-21.12-23.798-12.221-3.751-21.333-2.358-30.767 4.824-1.93 1.501-3.753 2.68-4.181 2.68-.322 0-3.109-2.144-6.111-4.716-3.967-3.323-7.183-5.146-10.935-5.896-6.54-1.5-16.51-1.394-20.69.107Zm21.441 7.182c6.753 3.216 12.328 7.718 12.328 9.862 0 2.037-5.36 10.827-6.432 10.398-.429-.214-2.466-2.466-4.503-5.145-4.931-6.646-9.541-8.898-16.724-8.147-7.933.75-12.328 3.966-15.759 11.47-3.109 6.967-3.323 10.29-1.072 17.687 2.252 7.825 7.505 15.436 18.01 25.941 5.146 5.253 9.327 10.076 9.327 10.72 0 .857-1.93 1.286-5.038 1.286-4.932 0-5.253-.214-13.508-8.897-9.756-10.184-17.045-20.046-18.868-25.298-.643-2.037-1.18-7.29-1.18-11.792 0-6.967.43-8.897 3.11-13.506 3.538-6.218 11.47-13.936 16.51-16.08 1.929-.857 6.539-1.5 10.398-1.608 5.468 0 8.362.644 13.401 3.11Zm49.528.643c6.111 2.573 12.436 8.361 15.759 14.579 2.68 4.716 3.109 6.86 3.109 13.185 0 8.361-2.895 24.226-5.253 28.621-1.823 3.645-14.58 13.828-17.153 13.828-1.501 0-.536-1.393 3.431-5.145 11.042-10.184 14.472-19.51 12.435-33.016-2.144-13.293-7.611-20.582-16.831-22.297-8.79-1.715-16.723 3.538-21.762 14.364-2.573 5.36-2.787 7.182-2.895 19.403 0 12.005.215 13.828 2.037 15.864 2.895 3.11 1.18 4.288-5.146 3.43-4.717-.535-5.467-1.071-7.289-4.501-9.756-18.974 2.144-51.561 21.333-58.422 5.468-1.93 13.508-1.822 18.225.107Zm-55.96 15.65c8.254 7.612 9.112 9.756 8.361 20.904l-.643 9.755-10.077.75c-5.575.429-10.506.429-11.042.107-.643-.321-2.359-2.894-3.967-5.681C75.227 48.6 74.8 46.67 74.8 39.597c0-7.29.321-8.469 2.68-11.042 2.894-3.108 7.826-5.788 11.042-5.895.965 0 4.073 2.037 6.646 4.395Zm118.996.43c7.826 7.718-2.787 26.584-22.406 39.555-11.363 7.61-28.623 15.972-31.839 15.436-1.93-.322.429-1.823 9.755-6.54 18.547-9.325 36.664-24.118 40.845-33.23 3.752-8.36 1.823-14.685-4.502-14.685-2.788 0-4.932 1.822-7.934 6.967-.964 1.608-1.608 1.715-3.537.643-1.823-.964-2.144-1.715-1.394-3.644 2.466-6.86 15.866-9.755 21.012-4.502Zm-64.43-.43c4.503 2.038 8.255 10.613 8.898 20.26.858 12.435 1.072 12.221-17.26 11.363-8.147-.321-15.33-.964-15.866-1.393-1.93-1.072 0-10.184 3.645-17.259 5.896-11.791 13.079-16.293 20.583-12.97ZM54.858 61.037c8.04 3.751 26.051 21.117 23.693 22.725-2.466 1.608-2.68 1.5-8.577-3.752-10.077-8.897-20.797-12.649-36.45-12.542H23.34l4.289-3.751c2.358-2.144 5.789-4.503 7.504-5.253 4.395-2.037 12.221-1.072 19.725 2.573Zm51.244 7.396c3.645 4.395 3.109 6.325-2.037 8.79l-4.61 2.037-3.859-3.966c-4.931-5.039-7.611-9.22-6.647-10.184.537-.536 3.967-.643 7.826-.322 6.004.43 7.183.965 9.327 3.645Zm39.344-2.037c2.359.43 4.396 1.287 4.61 1.823.536 1.93-11.149 13.4-12.972 12.756-1.715-.643-10.291-12.756-10.291-14.471 0-1.072 12.543-1.18 18.653-.108ZM56.681 77.758c9.005 4.18 8.576 5.253-2.037 4.717-5.146-.215-9.648-.75-9.97-1.18-1.18-1.071 2.68-6.11 4.717-6.11.965 0 4.288 1.18 7.29 2.573Zm130.253 1.608c2.252 1.822 2.359 2.144.858 2.787-.965.322-4.61.536-8.04.322l-6.326-.322 4.825-2.358c5.789-3.002 5.574-3.002 8.683-.429Zm-58.426 2.787c2.787 1.822 3.43 3.752 1.179 3.752-.858 0-2.358.965-3.43 2.144-1.608 1.822-3.324 2.144-10.721 2.144-6.539 0-9.219-.429-10.184-1.608-1.823-2.144-.536-6.325 2.358-7.825 3.431-1.823 17.475-.858 20.798 1.393Zm-49.421 6.54c18.868.642 23.692 1.821 22.405 5.252-.536 1.393-5.789 1.608-37.521 1.608-20.262 0-36.878-.322-36.771-.858 0-.429 2.037-2.358 4.502-4.288l4.503-3.644 12.328.643c6.754.321 20.584.857 30.554 1.286Zm118.568 1.285c1.501 1.287 2.144 2.68 1.715 3.752-.643 1.608-3.967 1.823-33.341 1.823-29.052 0-32.697-.215-33.233-1.716-1.822-4.716.536-5.038 43.418-5.574 17.045-.214 19.189 0 21.441 1.715Zm-68.933 7.397c1.18 1.715 4.074 6.968 6.647 11.899l4.61 9.004-.751 9.219c-.429 5.145-1.286 12.327-1.929 15.972-1.501 8.039-.751 7.825-25.086 7.825H94.631l-.107-3.537c0-1.823-.643-10.398-1.394-18.974-.857-10.291-.964-16.294-.321-17.687 2.037-4.181 12.65-15.436 15.008-15.865 1.287-.214 6.111-.536 10.614-.643 7.826-.107 8.362 0 10.291 2.787Zm-35.484 2.787c.428.536.321 1.501-.215 2.251-.643.75-2.465 3.323-4.073 5.681l-3.002 4.288 1.822 18.331c.965 10.076 1.501 19.08 1.18 19.938-1.073 2.68-8.255 3.859-24.55 3.859-15.33 0-25.622-.858-39.13-3.43-7.719-1.394-6.968-.322-11.47-18.545-4.289-17.795-4.289-17.687-.537-23.369 5.79-8.682 6.969-9.218 25.193-9.647 23.907-.643 53.817-.215 54.782.643Zm113.207.858c3.645 1.822 12.543 10.826 11.793 12.005-.322.536.322 2.466 1.286 4.395 1.501 2.68 1.716 4.181.858 6.539l-.965 3.002-3.538-4.502c-3.216-4.074-6.539-5.789-6.539-3.324 0 .536 2.144 4.074 4.824 7.719 2.68 3.644 4.61 7.289 4.288 8.039-.321.858-.536 2.037-.536 2.573 0 2.465-2.144.429-6.218-6.003-2.465-3.966-5.145-6.968-6.217-6.968-2.145 0-1.823.751 4.288 10.72 2.68 4.395 4.931 8.79 4.931 9.755 0 4.287-2.251 2.787-6.325-4.074-6.218-10.612-7.183-11.791-8.683-10.291-.965.858.107 3.431 4.395 10.398 3.966 6.646 5.253 9.648 4.503 10.398-.858.858-2.681-1.179-6.433-6.967-2.787-4.503-5.789-8.362-6.539-8.683-3.002-1.179-2.466 3.108 1.286 9.004 4.503 7.289 4.503 7.611 1.93 7.611-1.072 0-3.538-1.929-5.575-4.395-3.109-3.966-3.645-4.181-5.146-2.68-1.5 1.501-1.5 1.822.108 3.645.965 1.072 1.822 2.358 1.822 2.68 0 1.179-46.955.857-47.599-.215-.321-.536.322-7.396 1.609-15.221 2.572-16.937 2.358-20.582-2.145-27.014-4.502-6.646-4.395-8.039 1.287-8.575 11.578-.965 60.999-.643 63.25.429Zm-78.152 55.205 4.932.75v5.253c0 2.894-.429 9.648-.965 15.115-.643 5.466-1.608 16.186-2.358 24.011-.751 7.825-1.609 14.686-2.037 15.222-.322.75-5.575 1.286-12.436 1.501l-11.685.214-.751-10.183c-.321-5.575-.857-19.296-1.072-30.444l-.321-20.367 2.68-.75c3.537-.965 17.581-1.18 24.013-.322Zm-60.463 4.181c8.576 0 18.225-.215 21.441-.536l5.896-.536.644 8.039c.428 4.395 1.072 17.473 1.5 29.05.75 17.473.536 21.225-.643 21.975-2.358 1.501-33.984 1.93-40.309.429-9.863-2.144-11.685-5.36-20.904-37.518-7.183-24.87-7.72-23.047 5.896-21.868 6.003.536 17.903.965 26.48.965Zm120.712 2.894c-.965 6.217-2.037 6.86-5.36 3.537-1.501-1.5-3.323-2.465-3.859-2.144-2.037 1.287-1.072 4.503 2.251 7.397 2.68 2.465 3.109 3.537 2.573 5.788-1.072 4.181-1.394 4.181-4.931-.107-1.823-2.251-3.753-3.752-4.289-3.43-1.179.75-1.286 4.502-.107 5.038 2.251.965 6.647 8.361 6.647 11.363 0 5.36-1.715 4.931-5.253-1.501-2.359-4.18-3.967-5.788-5.253-5.574-2.68.536-1.823 3.43 3.645 11.47 3.216 4.717 4.717 8.147 4.717 10.505 0 1.93-.322 3.538-.751 3.538-.536-.108-3.001-3.431-5.682-7.504-4.931-7.825-6.003-8.683-7.182-5.789-.322.965 1.501 4.717 4.931 9.541 4.503 6.539 6.968 12.327 5.039 12.327-.215 0-1.179.215-1.93.536-1.072.429-3.538-2.144-7.29-7.504-3.216-4.395-6.432-8.039-7.182-8.039-2.145 0-1.609 3.752.75 5.896 1.179 1.071 2.144 2.358 2.144 2.894 0 .643.965 2.251 2.144 3.752 2.787 3.644 2.68 4.609-.536 4.609-3.109 0-4.717-1.608-9.434-9.004-1.93-2.895-3.859-5.253-4.502-5.146-2.145.215-1.716 3.43.964 7.397 3.324 4.823 3.431 5.681.751 5.681-1.287 0-3.109-1.822-4.824-4.824-2.895-4.931-5.575-6.11-6.647-3.216-.429.858.107 2.788 1.072 4.288 1.608 2.466 1.608 2.787.107 3.323-.857.429-2.787.322-4.288 0-2.573-.643-2.68-.964-2.68-10.183 0-15.865 2.894-40.627 5.467-47.059.965-2.358 1.072-2.358 25.193-2.358h24.336l-.751 4.502ZM81.445 10.44c-1.608 1.715.965 2.572 7.397 2.572 6.54 0 8.898-1.179 5.146-2.572-2.251-.858-11.685-.858-12.543 0Zm42.453 9.969c-3.752 3.537-10.077 14.793-9.327 16.615 1.394 3.537 3.109 1.608 7.719-8.469 1.072-2.358 2.787-5.574 3.859-7.289 2.252-3.323.965-3.859-2.251-.857Zm-17.367 87.149c-5.039 6.218-6.003 9.005-5.146 14.472 1.287 7.825 5.039 7.396 5.039-.536 0-5.038 2.251-10.077 6.646-14.9 2.252-2.359 1.823-4.61-.75-4.61-.75 0-3.431 2.466-5.789 5.574Zm-87.372 2.895c-1.715 1.715-2.787 3.966-2.572 5.145.321 1.715 1.393 1.93 8.683 1.822 4.61-.107 8.684-.536 9.112-.857 1.073-1.179-2.144-2.787-5.681-2.787-4.503 0-6.647-1.501-5.039-3.538 1.18-1.393.75-2.894-.858-2.894-.321 0-2.037 1.394-3.645 3.109Zm154.053-1.394c-1.715.751-1.822 3.323-.107 4.288 1.608.965 34.841 2.68 36.878 1.822.858-.321 1.501-1.393 1.501-2.465 0-1.715-1.394-2.037-11.471-2.573-6.432-.429-14.687-.857-18.546-1.179-3.86-.214-7.612-.107-8.255.107Zm-2.787 13.936c-.322.321-3.216.964-6.325 1.393-5.039.536-5.897 1.072-7.397 4.181-.965 1.929-1.501 4.502-1.287 5.788.751 2.466 8.255 10.505 9.97 10.505.643 0 4.074-1.929 7.504-4.287 9.22-6.218 12.222-13.078 7.29-16.509-2.358-1.715-8.469-2.358-9.755-1.071Zm7.504 5.359c1.287 3.431-10.077 12.006-14.044 10.505-.857-.321-2.144-2.036-2.787-3.751-1.608-3.859 0-6.325 4.181-6.325 1.501 0 3.538-.536 4.395-1.072 2.573-1.608 7.505-1.286 8.255.643ZM41.565 167.481c-1.608 2.465 2.895 22.403 5.039 22.403 1.608 0 .429-19.831-1.287-21.975-1.608-1.929-2.787-2.036-3.752-.428Zm33.662 12.649c-1.93 1.5-3.109 1.822-5.145 1.072-2.788-1.072-6.647-.322-7.826 1.607-1.394 1.93-.965 8.04.75 11.256 2.894 5.789 11.47 11.47 15.009 10.184 4.18-1.608 12.114-17.58 10.827-21.654-1.393-4.395-9.434-5.896-13.615-2.465Zm6.754 6.431c-.536 6.754-5.467 13.721-8.683 12.006-3.645-1.929-7.612-6.86-7.612-9.433 0-3.537 3.216-4.502 5.146-1.608 1.822 2.787 4.503 3.109 4.503.536 0-2.465 3.323-5.789 5.253-5.36 1.179.215 1.608 1.287 1.393 3.859Zm62.822-15.436c-6.432 3.538-6.968 9.862-1.179 15.115 5.038 4.609 9.434 4.824 14.472.75 9.863-8.254 9.434-14.578-1.072-15.65-2.787-.215-6.003-.751-7.182-1.18-1.18-.321-3.431.108-5.039.965Zm3.966 4.931c.537.643 2.895.858 6.54.322 4.395-.536 5.789-.322 5.789.643 0 2.144-8.469 9.648-10.828 9.648-2.251 0-7.397-4.503-7.397-6.432 0-3.966 4.288-6.968 5.896-4.181Z"/>
</svg>