<svg xmlns="http://www.w3.org/2000/svg" width="44" height="44" fill="none"><path fill="#505050" fill-rule="evenodd" d="M20 22.5a.5.5 0 0 1 .5-.5h3a.5.5 0 0 1 0 1h-3a.5.5 0 0 1-.5-.5ZM20 19.5a.5.5 0 0 1 .5-.5h3a.5.5 0 0 1 0 1h-3a.5.5 0 0 1-.5-.5ZM20 16.5a.5.5 0 0 1 .5-.5h2a.5.5 0 0 1 0 1h-2a.5.5 0 0 1-.5-.5ZM16.007 12.993h8.97c1.1 0 1.998.897 2 1.995l.008 3.25L30.6 20.95a1 1 0 0 1 .4.8V31a1 1 0 0 1-1 1H14a1 1 0 0 1-1-1v-9.25a1 1 0 0 1 .4-.8l3.607-2.706v-1.251h-1c-1.1 0-2-.9-2-2 0-1.103.9-2 2-2Zm8.975 1c.548 0 1 .447 1 .995l.022 9.321-1.454 1.111-1.029-.605a3 3 0 0 0-3.042 0l-1.03.605-1.442-1.103v-9.324a1.961 1.961 0 0 0-.27-1h7.245Zm-9.975 1a1 1 0 0 1 2-.003v1.003h-1.002a1 1 0 0 1-.998-1Zm3.512 10.975L14 22.512v6.114l4.519-2.659ZM14 29.786V31h16v-1.214l-6.986-4.11a2 2 0 0 0-2.028 0L14 29.787Zm16-1.16v-6.114l-4.519 3.456L30 28.626Zm-12.993-9.132-2.679 2.01 2.68 2.049v-4.059Zm9.99 4.055 2.675-2.045-2.675-2.006v4.051Z" clip-rule="evenodd"/></svg>