<svg width="22" height="22" viewBox="0 0 22 22" fill="none" xmlns="http://www.w3.org/2000/svg">
<path d="M12 20.5C12 21.3284 11.3284 22 10.5 22C9.67157 22 9 21.3284 9 20.5C9 19.6716 9.67157 19 10.5 19C11.3284 19 12 19.6716 12 20.5Z" fill="#505050"/>
<path d="M12 11.5C12 12.3284 11.3284 13 10.5 13C9.67157 13 9 12.3284 9 11.5C9 10.6716 9.67157 10 10.5 10C11.3284 10 12 10.6716 12 11.5Z" fill="#505050"/>
<path d="M12 2.5C12 3.32843 11.3284 4 10.5 4C9.67157 4 9 3.32843 9 2.5C9 1.67157 9.67157 1 10.5 1C11.3284 1 12 1.67157 12 2.5Z" fill="#505050"/>
</svg>
