<svg width="22" height="22" viewBox="0 0 22 22" fill="none" xmlns="http://www.w3.org/2000/svg">
<path fill-rule="evenodd" clip-rule="evenodd" d="M8.00008 9H14.0001V6C14.0001 4.3425 12.6551 3 11.0001 3C9.34258 3 8.00008 4.3425 8.00008 6V9ZM7.00008 9V6C7.00008 3.7925 8.79258 2 11.0001 2C13.2076 2 15.0001 3.7925 15.0001 6V9H17.0001C17.5524 9 18.0001 9.44772 18.0001 10V18C18.0001 18.5523 17.5524 19 17.0001 19H5C4.44771 19 4 18.5523 4 18L4.00007 9.99999C4.00007 9.44771 4.44779 9 5.00007 9H7.00008ZM17.0001 10H5.00008V18H17.0001V10Z" fill="#505050"/>
<path d="M12.0001 13V15C12.0001 15.5523 11.5524 16 11.0001 16C10.4478 16 10.0001 15.5523 10.0001 15V13C10.0001 12.4477 10.4478 12 11.0001 12C11.5524 12 12.0001 12.4477 12.0001 13Z" fill="#505050"/>
</svg>
