<svg width="22" height="22" viewBox="0 0 22 22" fill="none" xmlns="http://www.w3.org/2000/svg">
<path fill-rule="evenodd" clip-rule="evenodd" d="M16.1464 7.14645C16.3417 6.95119 16.6583 6.95119 16.8536 7.14645L21.2071 11.5L16.8536 15.8536C16.6583 16.0488 16.3417 16.0488 16.1464 15.8536C15.9512 15.6583 15.9512 15.3417 16.1464 15.1464L19.2929 12H7.5C7.22386 12 7 11.7761 7 11.5C7 11.2239 7.22386 11 7.5 11H19.2929L16.1464 7.85355C15.9512 7.65829 15.9512 7.34171 16.1464 7.14645Z" fill="#505050"/>
<path fill-rule="evenodd" clip-rule="evenodd" d="M4.5 2C2.567 2 1 3.567 1 5.5V17.5C1 19.433 2.567 21 4.5 21H10.5C10.7761 21 11 21.2239 11 21.5C11 21.7761 10.7761 22 10.5 22H4.5C2.01472 22 0 19.9853 0 17.5V5.5C0 3.01472 2.01472 1 4.5 1H10.5C10.7761 1 11 1.22386 11 1.5C11 1.77614 10.7761 2 10.5 2H4.5Z" fill="#505050"/>
</svg>
