<svg width="22" height="22" viewBox="0 0 22 22" fill="none" xmlns="http://www.w3.org/2000/svg">
<path fill-rule="evenodd" clip-rule="evenodd" d="M10 12V4.07179C8.97058 4.22038 7.9828 4.5972 7.11101 5.17971C5.95987 5.94888 5.06266 7.04213 4.53285 8.32122C4.00303 9.6003 3.86441 11.0078 4.13451 12.3656C4.4046 13.7235 5.07129 14.9708 6.05026 15.9497C7.02922 16.9287 8.2765 17.5954 9.63437 17.8655C10.9922 18.1356 12.3997 17.997 13.6788 17.4672C14.9579 16.9373 16.0511 16.0401 16.8203 14.889C17.4028 14.0172 17.7796 13.0294 17.9282 12H10ZM18.9373 12C18.7826 13.2279 18.3444 14.408 17.6518 15.4446C16.7727 16.7602 15.5233 17.7855 14.0615 18.391C12.5997 18.9965 10.9911 19.155 9.43928 18.8463C7.88743 18.5376 6.46197 17.7757 5.34315 16.6569C4.22433 15.538 3.4624 14.1126 3.15372 12.5607C2.84504 11.0089 3.00347 9.40034 3.60897 7.93853C4.21447 6.47672 5.23985 5.22729 6.55544 4.34824C7.59203 3.65562 8.77211 3.21744 10 3.06274C10.3305 3.0211 10.6645 3 11 3V11H19C19 11.3356 18.9789 11.6695 18.9373 12ZM14.6788 3.53284C14.1394 3.3094 13.5753 3.15484 13 3.0718V9L18.9282 9C18.8452 8.42469 18.6906 7.86065 18.4672 7.32122C18.1154 6.47194 17.5998 5.70026 16.9498 5.05025C16.2997 4.40024 15.5281 3.88463 14.6788 3.53284ZM13 2.06275C13.707 2.15182 14.4004 2.33513 15.0615 2.60896C16.0321 3.011 16.914 3.60028 17.6569 4.34315C18.3997 5.08602 18.989 5.96793 19.391 6.93853C19.6649 7.59962 19.8482 8.29303 19.9373 9C19.979 9.331 20 9.66498 20 10H12V2C12.335 2 12.669 2.02104 13 2.06275Z" fill="#505050"/>
</svg>
