<svg width="22" height="22" viewBox="0 0 22 22" fill="none" xmlns="http://www.w3.org/2000/svg">
<path fill-rule="evenodd" clip-rule="evenodd" d="M4 20V8.99998C4 8.4477 4.44772 7.99998 5 7.99998H8.0894C6.88848 7.65173 6.14314 7.14374 5.48893 6.48952C4.84422 5.84481 4.43296 5.0425 4.49114 4.16982C4.54855 3.30872 4.8414 2.45145 5.64645 1.64641C6.47978 0.813084 7.47257 0.642346 8.37049 0.782025C9.24156 0.917526 10.2006 1.67774 10.8052 2.41676C11.7092 3.52161 12.0808 4.76732 12.3578 6.38519C12.7572 5.11968 13.1661 3.91858 13.9648 3.1464C14.6599 2.47452 15.3092 2.09967 16.0531 2.05204C16.8131 2.00338 17.8096 2.23386 18.4797 2.90396C19.1363 3.56052 19.2758 4.51924 19.2028 5.25015C19.1307 5.9721 18.6186 6.66242 18 7.1255C17.4727 7.5202 16.9107 7.75706 16.117 7.99998H18C18.5523 7.99998 19 8.4477 19 8.99998V20C19 20.5523 18.5523 21 18 21H5C4.44772 21 4 20.5523 4 20ZM13 8.99998V12H18V8.99998H13ZM12 8.99998H5V12H12V8.99998ZM5 13V20H12V13H5ZM13 20H18V13H13V20ZM13.0994 7.4868C15.0272 7.40119 16.5043 6.99602 17.4007 6.32495C17.8902 5.95857 18.1734 5.49421 18.2078 5.15073C18.2412 4.81622 18.2983 4.13671 17.7726 3.61108C17.2605 3.09898 16.5319 3.02343 16.117 3.05C15.6862 3.07758 15.2489 3.29596 14.6599 3.86538C13.85 4.64826 13.4112 6.03408 13.0994 7.4868ZM11.4835 7.4922C8.80976 7.41092 7.1248 6.71118 6.19604 5.78242C5.71574 5.30212 5.45336 4.7699 5.48893 4.23633C5.52527 3.69118 5.6586 3.04846 6.35355 2.35352C7.02022 1.68685 7.70846 1.69107 8.21678 1.77014C8.75197 1.85339 9.51091 2.41401 10.0313 3.05C10.982 4.21196 11.3705 5.73002 11.4835 7.4922Z" fill="#505050"/>
</svg>
