<svg width="22" height="22" viewBox="0 0 22 22" fill="none" xmlns="http://www.w3.org/2000/svg">
<path fill-rule="evenodd" clip-rule="evenodd" d="M17.3696 4.72173C17.2826 5.0414 17.1847 5.36598 17.0805 5.67942C16.2566 8.15728 14.902 10.4303 13.1067 12.3375C11.3115 14.2447 9.12447 15.7341 6.7009 16.7062C6.39182 16.8302 6.07889 16.9457 5.76243 17.0527C5.05456 17.2919 4.65309 16.3652 5.44023 16.0992C8.0816 15.2065 10.4628 13.6778 12.3739 11.6476C14.2831 9.61936 15.6665 7.14525 16.3984 4.45772C16.6022 3.70965 17.5771 3.95972 17.3696 4.72173Z" fill="#505050"/>
<path fill-rule="evenodd" clip-rule="evenodd" d="M11.325 6.39315C10.1757 8.42866 8.49948 10.1172 6.47177 11.2803C5.53835 11.8158 6.19968 12.5841 6.96696 12.1434C7.25515 11.9779 7.54198 11.7996 7.81655 11.6148C9.34443 10.5865 10.6546 9.26677 11.6716 7.73139C11.8546 7.45514 12.0281 7.17193 12.1916 6.88215C12.6171 6.12825 11.7628 5.61774 11.325 6.39315Z" fill="#505050"/>
</svg>
