<svg width="22" height="22" viewBox="0 0 22 22" fill="none" xmlns="http://www.w3.org/2000/svg">
<path d="M20.0001 7.50013C20.0001 7.77627 19.6902 8.00013 19.3078 8.00013L15 8L15 9C15 9.55228 14.5523 10 14 10H13C12.4477 10 12 9.55228 12 9V8.00013L2.69243 8.00013C2.31008 8.00013 2.00012 7.77627 2.00012 7.50013C2.00012 7.22399 2.31008 7.00013 2.69243 7.00013L12 7.00013V6C12 5.44772 12.4477 5 13 5H14C14.5523 5 15 5.44772 15 6L15 7.00013L19.3078 7.00013C19.6902 7.00013 20.0001 7.22399 20.0001 7.50013Z" fill="#505050"/>
<path d="M2.00012 14.5001C2.00012 14.224 2.31008 14.0001 2.69243 14.0001H4.99997V13C4.99997 12.4477 5.44768 12 5.99997 12H6.99997C7.55225 12 7.99997 12.4477 7.99997 13V14.0001L19.3078 14.0001C19.6902 14.0001 20.0001 14.224 20.0001 14.5001C20.0001 14.7763 19.6902 15.0001 19.3078 15.0001L7.99997 15.0001V16C7.99997 16.5523 7.55225 17 6.99997 17H5.99997C5.44768 17 4.99997 16.5523 4.99997 16V15.0001H2.69243C2.31008 15.0001 2.00012 14.7763 2.00012 14.5001Z" fill="#505050"/>
</svg>
