<svg width="22" height="22" viewBox="0 0 22 22" fill="none" xmlns="http://www.w3.org/2000/svg">
<path d="M18 0.5C18 0.223857 18.2239 0 18.5 0C18.7761 0 19 0.223858 19 0.5V17.5C19 17.7761 18.7761 18 18.5 18C18.2239 18 18 17.7761 18 17.5V0.5Z" fill="#505050"/>
<path d="M11 5.5C11 5.22386 11.2239 5 11.5 5C11.7761 5 12 5.22386 12 5.5V17.5C12 17.7761 11.7761 18 11.5 18C11.2239 18 11 17.7761 11 17.5V5.5Z" fill="#505050"/>
<path d="M4 10.5C4 10.2239 4.22386 10 4.5 10C4.77614 10 5 10.2239 5 10.5V17.5C5 17.7761 4.77614 18 4.5 18C4.22386 18 4 17.7761 4 17.5V10.5Z" fill="#505050"/>
</svg>
