<svg width="22" height="22" viewBox="0 0 22 22" fill="none" xmlns="http://www.w3.org/2000/svg">
<path d="M3.67295 10.8993C3.70861 10.7199 3.83481 10.554 4.04193 10.4108C4.10983 10.3648 5.21611 9.78627 7.14677 8.78952C7.53359 8.5896 7.85046 8.42513 7.85046 8.42513C7.85046 8.42513 7.99243 7.48652 8.16458 6.34019C8.33672 5.19385 8.48418 4.2205 8.49173 4.17796C8.55277 3.83201 8.69062 3.59594 8.8902 3.4974C8.96428 3.46053 9.026 3.44848 9.12134 3.45344C9.22078 3.45841 9.27908 3.47471 9.38607 3.52859C9.47249 3.57254 9.54245 3.62075 9.63229 3.69873C9.66178 3.72425 10.3373 4.44168 11.1336 5.29239C12.3352 6.57767 12.5828 6.83927 12.5952 6.83643C12.6116 6.83218 16.5072 6.15445 16.6732 6.1268C17.1821 6.04173 17.5182 6.19344 17.5888 6.53868C17.5943 6.56562 17.5991 6.62588 17.5991 6.67125C17.5991 6.82438 17.56 6.9768 17.4729 7.16254C17.4455 7.22067 16.9901 8.10754 16.462 9.13193L15.5011 10.9957L16.4757 12.8857C17.012 13.9257 17.4654 14.8097 17.4839 14.8494C17.5587 15.0118 17.5991 15.1769 17.5991 15.3187C17.5991 15.4151 17.5875 15.4818 17.558 15.5548C17.4887 15.7271 17.3214 15.8419 17.0868 15.8781C17.0175 15.8887 16.8344 15.8873 16.7487 15.8752C16.7089 15.8703 15.7583 15.7058 14.6363 15.5101C13.5142 15.3152 12.5904 15.1564 12.5842 15.1571C12.578 15.1585 12.0122 15.759 11.3263 16.492C9.7482 18.1799 9.68716 18.2452 9.6124 18.3097C9.34904 18.5365 9.07538 18.6003 8.86826 18.4827C8.8127 18.4515 8.80036 18.4415 8.74275 18.3827C8.63575 18.2749 8.55414 18.1041 8.50887 17.8985C8.49927 17.8538 8.34907 16.872 8.17486 15.7157C7.87995 13.7541 7.85731 13.6116 7.84017 13.5819L7.82234 13.55L5.97397 12.5929C4.95754 12.0662 4.10366 11.6217 4.0776 11.6047C3.89859 11.4891 3.76142 11.3388 3.7045 11.197C3.66472 11.0971 3.65374 10.9957 3.67295 10.8993Z" fill="white"/>
<path d="M2.74681 11.1858C2.79276 11.5253 2.93816 11.8217 3.18918 12.0889C3.32018 12.2279 3.46078 12.3406 3.6487 12.4569C3.69191 12.4838 4.46486 12.8865 5.36675 13.3529C6.26796 13.8187 7.00662 14.2015 7.00662 14.2015C7.00662 14.2015 7.13487 15.0473 7.29056 16.0809C7.44556 17.1138 7.58205 18.0042 7.59302 18.0588C7.6328 18.2587 7.68699 18.4232 7.77409 18.6047C8.00522 19.0888 8.37901 19.3901 8.86116 19.4816C8.96952 19.5022 9.19928 19.5036 9.31039 19.4851C9.67115 19.4242 10.0045 19.2448 10.3172 18.9442C10.3618 18.9017 10.9599 18.2658 11.6464 17.5306C12.3329 16.7955 12.8981 16.1915 12.9029 16.1886C12.9077 16.1851 13.717 16.3233 14.7471 16.502C15.7567 16.6778 16.6243 16.8267 16.6744 16.8338C16.804 16.8501 17.0715 16.8501 17.1908 16.8331C17.387 16.8061 17.5598 16.7537 17.7189 16.6735C18.319 16.3708 18.6208 15.7342 18.5035 15.021C18.4679 14.8034 18.3924 14.5758 18.284 14.3582C18.2628 14.3149 17.8664 13.5451 17.4034 12.6461C16.9398 11.7472 16.5598 11.0071 16.5584 11.0007C16.5564 10.9951 16.9432 10.2372 17.4178 9.31703C17.8917 8.39755 18.2978 7.60639 18.319 7.5596C18.5982 6.95347 18.5989 6.3523 18.3204 5.87591C18.1256 5.54271 17.795 5.29955 17.4 5.19888C17.2265 5.15493 17.1737 5.14926 16.937 5.14926C16.7704 5.14926 16.7059 5.15209 16.6387 5.16202C16.5914 5.16911 15.7375 5.31656 14.7409 5.48954C13.7437 5.66323 12.9228 5.80501 12.9159 5.80501C12.9084 5.80501 12.42 5.28821 11.6649 4.48074C10.9839 3.75267 10.3872 3.11748 10.3385 3.06856C10.0614 2.79066 9.75345 2.60989 9.41327 2.52482C9.34194 2.5071 9.32616 2.50639 9.12178 2.50355C8.91054 2.50071 8.90368 2.50071 8.81795 2.51844C8.19863 2.64817 7.75145 3.16356 7.59234 3.92991C7.58068 3.98733 7.00937 7.76236 7.00937 7.78362C7.00937 7.78717 6.27276 8.1707 5.37156 8.63646C4.47104 9.10152 3.70357 9.50064 3.66585 9.52333C3.48958 9.62825 3.34213 9.7438 3.20907 9.88133C3.10962 9.98413 3.05681 10.0501 2.98686 10.1578C2.85997 10.3549 2.77562 10.5825 2.74681 10.8065C2.73446 10.9057 2.73446 11.0922 2.74681 11.1858ZM3.67271 10.8993C3.70837 10.72 3.83457 10.5541 4.04169 10.4109C4.10959 10.3648 5.21587 9.78634 7.14653 8.78959C7.53335 8.58967 7.85022 8.4252 7.85022 8.4252C7.85022 8.4252 7.99219 7.48658 8.16434 6.34025C8.33648 5.19392 8.48394 4.22057 8.49149 4.17803C8.55253 3.83208 8.69038 3.596 8.88996 3.49746C8.96404 3.4606 9.02576 3.44855 9.1211 3.45351C9.22054 3.45847 9.27884 3.47478 9.38583 3.52866C9.47225 3.57261 9.54221 3.62082 9.63205 3.6988C9.66154 3.72432 10.3371 4.44175 11.1334 5.29246C12.335 6.57774 12.5826 6.83933 12.5949 6.8365C12.6114 6.83225 16.507 6.15451 16.673 6.12687C17.1819 6.04179 17.518 6.19351 17.5886 6.53875C17.5941 6.56569 17.5989 6.62595 17.5989 6.67132C17.5989 6.82445 17.5598 6.97687 17.4727 7.16261C17.4453 7.22074 16.9898 8.1076 16.4617 9.132L15.5009 10.9958L16.4755 12.8858C17.0118 13.9257 17.4651 14.8098 17.4837 14.8495C17.5584 15.0118 17.5989 15.177 17.5989 15.3188C17.5989 15.4152 17.5872 15.4818 17.5577 15.5549C17.4885 15.7271 17.3211 15.842 17.0866 15.8781C17.0173 15.8888 16.8342 15.8873 16.7484 15.8753C16.7086 15.8703 15.7581 15.7059 14.636 15.5102C13.514 15.3152 12.5901 15.1564 12.584 15.1572C12.5778 15.1586 12.012 15.759 11.3261 16.4921C9.74796 18.18 9.68692 18.2452 9.61216 18.3097C9.3488 18.5366 9.07514 18.6004 8.86802 18.4827C8.81246 18.4515 8.80012 18.4416 8.74251 18.3828C8.63551 18.275 8.5539 18.1042 8.50863 17.8986C8.49903 17.8539 8.34883 16.872 8.17462 15.7158C7.87971 13.7542 7.85707 13.6117 7.83993 13.5819L7.8221 13.55L5.97373 12.593C4.9573 12.0662 4.10342 11.6217 4.07736 11.6047C3.89835 11.4892 3.76118 11.3389 3.70426 11.1971C3.66448 11.0971 3.6535 10.9958 3.67271 10.8993Z" fill="#777777"/>
</svg>
