<svg width="22" height="22" viewBox="0 0 22 22" fill="none" xmlns="http://www.w3.org/2000/svg">
<path fill-rule="evenodd" clip-rule="evenodd" d="M3.5 10.4998L7.69999 8.2998L8.39999 3.5998L9.39999 3.2998L12.6 6.6998L17.2 5.7998L17.9 6.5998L15.8 10.9998L17.9 15.2998L17.1 16.1998L12.6 15.3185L9.29999 18.8998L8.4 18.5998L7.69999 13.6998C7.69999 13.6998 3.52606 11.4168 3.5 11.3998L3.5 10.4998ZM10.6956 5.70222C11.2959 6.3443 12.4313 7.41359 12.4313 7.41359L16.612 6.7664C16.7729 6.74149 16.8945 6.90908 16.821 7.05437L14.826 10.9955L16.8138 14.9316C16.8877 15.0779 16.764 15.246 16.6023 15.219L12.3 14.4998L9.42191 17.6106C9.30843 17.7332 9.1035 17.6709 9.07753 17.5058L8.4 13.1998L7.77827 12.8513C7.82234 10.5998 9 7.19884 10.6956 5.70222Z" fill="#FFCE00"/>
<path d="M9.07759 17.5062L8.40005 13.2002L7.77832 12.8517C7.82239 10.6002 9.00006 7.19926 10.6956 5.70264C10.999 6.02711 11.539 6.55065 11.9001 6.9002C10.4001 8.69016 9.3001 13.1002 10.1001 16.878C9.85968 17.1651 9.45566 17.5767 9.42395 17.609L9.41977 17.6133C9.30587 17.7328 9.10339 17.6702 9.07759 17.5062Z" fill="#FFF100"/>
<path d="M14.8258 10.9958L16.8136 14.9318C16.8875 15.0781 16.7638 15.2463 16.6021 15.2192L12.5998 14.5502L12.2998 14.5L10.0998 16.8779C9.29979 13.1 10.3998 8.69001 11.8998 6.90004L12.4311 7.41383L14.5214 7.09023L16.6118 6.76664C16.7727 6.74173 16.8943 6.90931 16.8208 7.05461L14.8258 10.9958Z" fill="#F4AD21"/>
<path d="M14.8262 10.9958L16.8139 14.9318C16.8878 15.0781 16.7641 15.2463 16.6024 15.2192L12.6001 14.5502C12.4001 12.1 12.5001 10.4 14.5217 7.09023L16.6121 6.76664C16.773 6.74173 16.8947 6.90931 16.8211 7.05461L14.8262 10.9958Z" fill="#CC8A1F"/>
<path d="M2.74681 11.1858C2.79276 11.5253 2.93816 11.8217 3.18918 12.0889C3.32018 12.2279 3.46078 12.3406 3.6487 12.4569C3.69191 12.4838 4.46486 12.8865 5.36675 13.3529C6.26796 13.8187 7.00662 14.2015 7.00662 14.2015C7.00662 14.2015 7.13488 15.0473 7.29056 16.0809C7.44557 17.1138 7.58205 18.0042 7.59302 18.0588C7.6328 18.2587 7.68699 18.4232 7.77409 18.6047C8.00522 19.0888 8.37901 19.3901 8.86116 19.4816C8.96952 19.5022 9.19928 19.5036 9.31039 19.4851C9.67115 19.4242 10.0045 19.2448 10.3172 18.9442C10.3618 18.9017 10.9599 18.2658 11.6464 17.5306C12.3329 16.7955 12.8981 16.1915 12.9029 16.1886C12.9077 16.1851 13.717 16.3233 14.7471 16.502C15.7567 16.6778 16.6243 16.8267 16.6744 16.8338C16.804 16.8501 17.0715 16.8501 17.1908 16.8331C17.387 16.8061 17.5598 16.7537 17.7189 16.6735C18.319 16.3708 18.6208 15.7342 18.5035 15.021C18.4679 14.8034 18.3924 14.5758 18.284 14.3582C18.2628 14.3149 17.8664 13.5451 17.4034 12.6461C16.9398 11.7472 16.5598 11.0071 16.5584 11.0007C16.5564 10.9951 16.9432 10.2372 17.4178 9.31703C17.8917 8.39755 18.2978 7.60639 18.319 7.5596C18.5982 6.95347 18.5989 6.3523 18.3204 5.87591C18.1256 5.54271 17.795 5.29955 17.4 5.19888C17.2265 5.15493 17.1737 5.14926 16.937 5.14926C16.7704 5.14926 16.7059 5.1521 16.6387 5.16202C16.5914 5.16911 15.7375 5.31656 14.7409 5.48954C13.7437 5.66323 12.9228 5.80501 12.9159 5.80501C12.9084 5.80501 12.42 5.28821 11.6649 4.48074C10.9839 3.75268 10.3872 3.11748 10.3385 3.06856C10.0614 2.79067 9.75345 2.60989 9.41327 2.52482C9.34194 2.5071 9.32616 2.50639 9.12178 2.50355C8.91054 2.50071 8.90368 2.50072 8.81795 2.51844C8.19863 2.64817 7.75146 3.16356 7.59234 3.92991C7.58068 3.98733 7.00937 7.76236 7.00937 7.78362C7.00937 7.78717 6.27276 8.1707 5.37156 8.63646C4.47104 9.10152 3.70357 9.50064 3.66585 9.52333C3.48959 9.62825 3.34213 9.7438 3.20907 9.88133C3.10962 9.98413 3.05681 10.0501 2.98686 10.1578C2.85997 10.3549 2.77562 10.5825 2.74681 10.8065C2.73446 10.9057 2.73446 11.0922 2.74681 11.1858ZM3.67271 10.8993C3.70837 10.72 3.83457 10.5541 4.0417 10.4109C4.10959 10.3648 5.21587 9.78634 7.14653 8.78959C7.53335 8.58967 7.85022 8.4252 7.85022 8.4252C7.85022 8.4252 7.99219 7.48659 8.16434 6.34025C8.33649 5.19392 8.48394 4.22057 8.49149 4.17803C8.55253 3.83208 8.69038 3.59601 8.88996 3.49746C8.96404 3.4606 9.02576 3.44855 9.1211 3.45351C9.22055 3.45847 9.27884 3.47478 9.38583 3.52866C9.47225 3.57261 9.54221 3.62082 9.63205 3.6988C9.66155 3.72432 10.3371 4.44175 11.1334 5.29246C12.335 6.57774 12.5826 6.83934 12.5949 6.8365C12.6114 6.83225 16.507 6.15452 16.673 6.12687C17.1819 6.0418 17.518 6.19351 17.5886 6.53875C17.5941 6.56569 17.5989 6.62595 17.5989 6.67132C17.5989 6.82445 17.5598 6.97687 17.4727 7.16261C17.4453 7.22074 16.9898 8.1076 16.4617 9.132L15.5009 10.9958L16.4755 12.8858C17.0118 13.9257 17.4651 14.8098 17.4837 14.8495C17.5584 15.0118 17.5989 15.177 17.5989 15.3188C17.5989 15.4152 17.5872 15.4818 17.5577 15.5549C17.4885 15.7271 17.3211 15.842 17.0866 15.8781C17.0173 15.8888 16.8342 15.8873 16.7484 15.8753C16.7086 15.8703 15.7581 15.7059 14.636 15.5102C13.514 15.3152 12.5901 15.1564 12.584 15.1572C12.5778 15.1586 12.012 15.759 11.3261 16.4921C9.74796 18.18 9.68692 18.2452 9.61216 18.3097C9.3488 18.5366 9.07515 18.6004 8.86802 18.4827C8.81247 18.4515 8.80012 18.4416 8.74251 18.3828C8.63552 18.275 8.5539 18.1042 8.50863 17.8986C8.49903 17.8539 8.34883 16.872 8.17462 15.7158C7.87971 13.7542 7.85708 13.6117 7.83993 13.5819L7.8221 13.55L5.97373 12.593C4.9573 12.0662 4.10342 11.6217 4.07736 11.6047C3.89835 11.4892 3.76118 11.3389 3.70426 11.1971C3.66448 11.0971 3.6535 10.9958 3.67271 10.8993Z" fill="#543224"/>
</svg>
