<svg width="22" height="22" viewBox="0 0 22 22" fill="none" xmlns="http://www.w3.org/2000/svg">
<path d="M5.00745 2.99255H13.9774C15.0774 2.99255 15.9749 3.89005 15.9774 4.98755L16.0024 14.9926H16.9774C18.0799 14.9926 18.9774 15.8926 18.9774 16.9926C18.9774 18.0876 18.0724 18.9926 16.9774 18.9926H8.00745C6.90745 18.9901 6.00745 18.0926 6.00745 16.9926V6.99255H5.00745C3.90745 6.99255 3.00745 6.09255 3.00745 4.99255C3.00745 3.89005 3.90745 2.99255 5.00745 2.99255ZM9.50745 12.9926C9.37484 12.9926 9.24766 12.9399 9.15389 12.8461C9.06012 12.7523 9.00745 12.6252 9.00745 12.4926C9.00745 12.2151 9.22995 11.9901 9.50745 11.9901H12.5074C12.6376 11.9942 12.7611 12.0488 12.8518 12.1423C12.9424 12.2359 12.9931 12.361 12.9931 12.4913C12.9931 12.6216 12.9424 12.7467 12.8518 12.8403C12.7611 12.9338 12.6376 12.9884 12.5074 12.9926H9.50745ZM9.50745 9.99255C9.37484 9.99255 9.24766 9.93987 9.15389 9.84611C9.06012 9.75234 9.00745 9.62516 9.00745 9.49255C9.00745 9.21505 9.22995 8.99005 9.50745 8.99005H11.5074C11.7849 8.99005 12.0074 9.21505 12.0074 9.49255C12.0074 9.62516 11.9548 9.75234 11.861 9.84611C11.7672 9.93987 11.6401 9.99255 11.5074 9.99255H9.50745ZM9.50745 6.99255C9.37484 6.99255 9.24766 6.93988 9.15389 6.84611C9.06012 6.75234 9.00745 6.62516 9.00745 6.49255C9.00745 6.21505 9.22995 5.99005 9.50745 5.99005H12.5074C12.6376 5.99417 12.7611 6.04878 12.8518 6.14233C12.9424 6.23589 12.9931 6.36104 12.9931 6.4913C12.9931 6.62157 12.9424 6.74672 12.8518 6.84028C12.7611 6.93383 12.6376 6.98844 12.5074 6.99255H9.50745ZM8.03745 17.9926C8.2982 17.9851 8.54573 17.8761 8.72736 17.6889C8.90899 17.5016 9.01038 17.2509 9.00995 16.9901C9.00995 16.4351 8.55995 15.9901 8.00745 15.9901L8.00995 14.9901L15.0074 14.9926L14.9824 4.98755C14.9824 4.44005 14.5299 3.99255 13.9824 3.99255H6.73745C6.91536 4.2957 7.00861 4.64106 7.00745 4.99255V16.9926C7.00745 17.5701 7.46995 17.9926 8.03745 17.9926ZM9.73995 17.9926H16.9774C17.5349 17.9926 17.9774 17.5401 17.9774 16.9876C17.9774 16.4376 17.5299 15.9876 16.9774 15.9876L9.73745 15.9901C9.91586 16.294 10.0099 16.6401 10.0099 16.9926C10.0099 17.3551 9.90995 17.6976 9.73995 17.9926ZM5.00495 3.99255C4.45245 3.99255 4.00745 4.44255 4.00745 4.99255C4.00745 5.54255 4.45495 5.99255 5.00495 5.99255H6.00745V4.99005C6.00745 4.43755 5.55995 3.99255 5.00495 3.99255Z" fill="#505050"/>
</svg>
