<svg width="44" height="44" xmlns="http://www.w3.org/2000/svg">
  <path d="M29.733 19.922c-.304.128-.328.264-.407 2.201l-.067 1.822-1.512.812c-.832.444-1.566.875-1.627.959-.067.084-.11.245-.11.4 0 .424.165.527 1.858 1.17.832.316 1.537.6 1.56.619.037.039.53 3.283.53 3.515 0 .045.078.167.175.277.207.232.486.264.747.084.091-.058.62-.728 1.172-1.481.558-.747 1.032-1.365 1.056-1.365.03 0 .783.135 1.682.296.892.161 1.694.27 1.773.251.255-.064.437-.322.437-.611 0-.232-.11-.432-.941-1.739-.516-.81-.941-1.5-.941-1.532 0-.026.328-.721.728-1.539.401-.81.76-1.57.796-1.674a.652.652 0 0 0-.34-.766c-.219-.096-.261-.083-1.828.393-.88.264-1.633.483-1.675.483-.043 0-.638-.592-1.324-1.32-1.324-1.397-1.354-1.416-1.742-1.255Z M27.077 15.016a.547.547 0 0 1-.332.7c-7.218 2.578-12.268 6.224-14.554 9.128-.569.723-.953 1.383-1.162 1.952-.21.573-.228 1.013-.131 1.331.17.556.857 1.1 2.73 1.033a.549.549 0 1 1 .04 1.094c-1.974.07-3.416-.482-3.821-1.808-.19-.622-.109-1.32.15-2.026.26-.709.714-1.47 1.33-2.251 2.453-3.117 7.705-6.861 15.048-9.484a.55.55 0 0 1 .702.33Z M15.197 17.35a.546.546 0 0 1-.136.763c-2.901 2.016-4.928 4.247-6.019 6.307-1.097 2.07-1.208 3.876-.48 5.153.724 1.27 2.398 2.224 5.353 2.324 2.947.099 7.06-.663 12.45-2.702a.547.547 0 1 1 .39 1.023c-5.461 2.067-9.728 2.879-12.877 2.773-3.14-.106-5.278-1.136-6.271-2.877-.99-1.734-.723-3.966.464-6.205 1.192-2.252 3.356-4.605 6.361-6.694a.55.55 0 0 1 .765.136Z M22.67 27.849c.119.278-.01.6-.29.719-1.987.849-3.417 1.131-5.642 1.408a.548.548 0 1 1-.136-1.086c2.17-.27 3.488-.535 5.346-1.329a.55.55 0 0 1 .721.288ZM27.63 10.374a.547.547 0 0 1-.347.693c-3.239 1.075-5.942 2.419-10.034 5.136a.55.55 0 0 1-.762-.151.546.546 0 0 1 .153-.76c4.15-2.756 6.941-4.15 10.296-5.264a.55.55 0 0 1 .695.346Z"/>
</svg>