<svg width="154" height="44" xmlns="http://www.w3.org/2000/svg">
<path fill-rule="evenodd" clip-rule="evenodd" d="M54.8374 14.34C54.6174 14.52 54.3874 14.69 54.1474 14.85C53.9074 15.01 53.6274 15.09 53.3074 15.09C53.0074 15.09 52.8574 14.82 52.8574 14.28C52.8574 13.18 53.3674 12.28 54.3874 11.58C55.3674 10.86 56.5474 10.5 57.9274 10.5C59.3074 10.5 60.3174 10.99 60.9574 11.97C61.4774 12.75 61.7374 13.81 61.7374 15.15C61.7374 15.73 61.6274 16.48 61.4074 17.4C60.2674 22.16 59.6874 25.46 59.6674 27.3C59.6874 28.18 60.0574 28.78 60.7774 29.1C61.0574 29.22 61.3874 29.28 61.7674 29.28C63.5474 29.28 65.2274 28.23 66.8074 26.13C66.0074 23.33 65.6074 20.15 65.6074 16.59C65.6074 15.27 65.9174 14.2 66.5374 13.38C67.1774 12.54 68.2074 12.12 69.6274 12.12C70.6874 12.12 71.4874 12.42 72.0274 13.02C72.5874 13.62 72.8674 14.41 72.8674 15.39C72.8674 17.41 72.3374 19.9 71.2774 22.86C70.9174 23.86 70.4974 24.85 70.0174 25.83C70.8774 28.15 72.0174 29.31 73.4374 29.31C75.0374 29.31 76.4374 28.23 77.6374 26.07C78.5174 24.49 79.2374 22.34 79.7974 19.62C78.3374 19.42 77.1774 18.8 76.3174 17.76C75.4774 16.72 75.0574 15.61 75.0574 14.43C75.0574 13.25 75.4274 12.27 76.1674 11.49C76.9074 10.71 77.9174 10.32 79.1974 10.32C80.4774 10.3 81.4374 10.75 82.0774 11.67C82.7174 12.57 83.0374 13.8 83.0374 15.36V15.96C83.0374 16.18 83.0274 16.42 83.0074 16.68C83.3474 16.52 83.6374 16.36 83.8774 16.2C84.1174 16.02 84.3574 15.93 84.5974 15.93C84.9974 15.93 85.1974 16.1 85.1974 16.44C85.1974 17.1 84.9774 17.68 84.5374 18.18C84.1174 18.68 83.5474 19.06 82.8274 19.32C82.5674 21.66 82.2174 23.5 81.7774 24.84C80.9574 27.42 79.8774 29.38 78.5374 30.72C76.9374 32.28 74.9674 33.07 72.6274 33.09C70.6874 33.09 69.1074 31.8 67.8874 29.22C65.8474 31.8 63.5274 33.09 60.9274 33.09C59.1474 33.09 57.7274 32.65 56.6674 31.77C55.6274 30.87 55.1074 29.46 55.1074 27.54C55.1074 27.08 55.3574 25.87 55.8574 23.91C56.3774 21.93 56.7874 20.31 57.0874 19.05C57.3874 17.77 57.5374 16.76 57.5374 16.02C57.5374 14.4 57.1274 13.59 56.3074 13.59C56.0274 13.59 55.7674 13.67 55.5274 13.83C55.3074 13.99 55.0774 14.16 54.8374 14.34ZM69.3874 14.64C68.8674 14.64 68.6074 15.45 68.6074 17.07C68.6074 18.69 68.7474 20.32 69.0274 21.96C69.7874 19.98 70.1674 18.06 70.1674 16.2C70.1674 15.8 70.0974 15.44 69.9574 15.12C69.8374 14.8 69.6474 14.64 69.3874 14.64ZM79.5274 12.93C79.1074 12.93 78.8974 13.26 78.8974 13.92C78.8974 15.12 79.3674 15.99 80.3074 16.53C80.3874 15.77 80.4274 15.26 80.4274 15C80.4274 14.44 80.3574 13.99 80.2174 13.65C80.0574 13.17 79.8274 12.93 79.5274 12.93Z M89.437 15.66C88.897 14.86 88.627 14 88.627 13.08C88.627 12.16 88.767 11.4 89.047 10.8C89.347 10.18 89.627 9.73 89.887 9.45C90.147 9.15 90.447 9 90.787 9C91.347 9 91.857 9.42 92.317 10.26C92.777 11.08 93.007 11.77 93.007 12.33C93.007 13.37 92.637 14.19 91.897 14.79C91.177 15.37 90.357 15.66 89.437 15.66Z M112.219 18.48C113.559 18.46 114.559 18.71 115.219 19.23C115.879 19.73 116.209 20.46 116.209 21.42C116.209 22.36 115.919 23.17 115.339 23.85C114.779 24.51 114.089 24.98 113.269 25.26C113.849 25.86 114.369 26.47 114.829 27.09C115.309 27.71 115.549 28.36 115.549 29.04C115.549 30.38 115.019 31.42 113.959 32.16C112.899 32.88 111.419 33.24 109.519 33.24C107.639 33.24 106.229 32.87 105.289 32.13C104.349 31.37 103.879 30.52 103.879 29.58C103.879 28.62 104.109 27.75 104.569 26.97C105.049 26.19 105.559 25.8 106.099 25.8C106.419 25.8 106.649 25.92 106.789 26.16C106.929 26.38 107.189 27.04 107.569 28.14C107.709 28.54 107.939 28.92 108.259 29.28C108.999 30.1 110.169 30.51 111.769 30.51C111.529 29.75 111.139 29.1 110.599 28.56C110.079 28 109.559 27.46 109.039 26.94C108.519 26.42 108.059 25.87 107.659 25.29C107.259 24.69 107.059 23.99 107.059 23.19C107.059 21.75 107.599 20.58 108.679 19.68C109.699 18.88 110.879 18.48 112.219 18.48ZM112.099 24.03C112.899 23.17 113.299 22.48 113.299 21.96C113.299 21.72 113.209 21.51 113.029 21.33C112.869 21.13 112.629 21.03 112.309 21.03C111.989 21.03 111.679 21.07 111.379 21.15C111.099 21.23 110.869 21.29 110.689 21.33C110.689 22.09 111.159 22.99 112.099 24.03Z M124.26 18.48C125.6 18.46 126.6 18.71 127.26 19.23C127.92 19.73 128.25 20.46 128.25 21.42C128.25 22.36 127.96 23.17 127.38 23.85C126.82 24.51 126.13 24.98 125.31 25.26C125.89 25.86 126.41 26.47 126.87 27.09C127.35 27.71 127.59 28.36 127.59 29.04C127.59 30.38 127.06 31.42 126 32.16C124.94 32.88 123.46 33.24 121.56 33.24C119.68 33.24 118.27 32.87 117.33 32.13C116.39 31.37 115.92 30.52 115.92 29.58C115.92 28.62 116.15 27.75 116.61 26.97C117.09 26.19 117.6 25.8 118.14 25.8C118.46 25.8 118.69 25.92 118.83 26.16C118.97 26.38 119.23 27.04 119.61 28.14C119.75 28.54 119.98 28.92 120.3 29.28C121.04 30.1 122.21 30.51 123.81 30.51C123.57 29.75 123.18 29.1 122.64 28.56C122.12 28 121.6 27.46 121.08 26.94C120.56 26.42 120.1 25.87 119.7 25.29C119.3 24.69 119.1 23.99 119.1 23.19C119.1 21.75 119.64 20.58 120.72 19.68C121.74 18.88 122.92 18.48 124.26 18.48ZM124.14 24.03C124.94 23.17 125.34 22.48 125.34 21.96C125.34 21.72 125.25 21.51 125.07 21.33C124.91 21.13 124.67 21.03 124.35 21.03C124.03 21.03 123.72 21.07 123.42 21.15C123.14 21.23 122.91 21.29 122.73 21.33C122.73 22.09 123.2 22.99 124.14 24.03Z M139.451 22.92C139.451 22.2 139.021 21.84 138.161 21.84C137.321 21.84 136.491 22.5 135.671 23.82C134.851 25.12 134.341 26.45 134.141 27.81C134.181 28.27 134.221 28.73 134.261 29.19C134.301 29.65 134.321 30.1 134.321 30.54C134.321 31.6 133.971 32.32 133.271 32.7C132.951 32.88 132.641 33.05 132.341 33.21C132.061 33.37 131.731 33.45 131.351 33.45C130.971 33.45 130.631 33.2 130.331 32.7C130.051 32.18 129.911 31.38 129.911 30.3C129.911 27.28 130.131 24.66 130.571 22.44C131.251 19 132.601 15.32 134.621 11.4C134.901 10.86 135.311 10.6 135.851 10.62C136.391 10.62 136.831 10.99 137.171 11.73C137.511 12.47 137.671 13.09 137.651 13.59C137.651 14.09 137.571 14.58 137.411 15.06C137.271 15.52 137.081 15.98 136.841 16.44C136.621 16.88 136.361 17.34 136.061 17.82C135.781 18.28 135.501 18.78 135.221 19.32L134.771 21.48C135.551 20.18 136.601 19.31 137.921 18.87C138.401 18.71 138.931 18.63 139.511 18.63C140.871 18.63 141.901 18.94 142.601 19.56C143.301 20.16 143.651 21.02 143.651 22.14C143.651 23.24 143.501 24.36 143.201 25.5C142.921 26.64 142.711 27.46 142.571 27.96C142.451 28.44 142.391 28.84 142.391 29.16C142.391 29.48 142.501 29.64 142.721 29.64C143.021 29.64 143.391 29.45 143.831 29.07C144.271 28.69 144.711 28.28 145.151 27.84C145.591 27.38 145.991 26.96 146.351 26.58C146.731 26.2 146.991 26.01 147.131 26.01C147.411 26.01 147.551 26.35 147.551 27.03C147.551 28.43 146.861 29.78 145.481 31.08C143.161 32.44 141.681 33.12 141.041 33.12C140.981 33.12 140.941 33.11 140.921 33.09C139.321 33.09 138.521 31.81 138.521 29.25C138.521 28.15 138.621 27.14 138.821 26.22C139.041 25.3 139.201 24.63 139.301 24.21C139.401 23.79 139.451 23.36 139.451 22.92Z M29.7325 19.9217C29.4289 20.0504 29.4046 20.1856 29.3257 22.1235L29.2589 23.9455L27.7471 24.7567C26.9153 25.2009 26.1807 25.6323 26.1199 25.716C26.0532 25.7997 26.0107 25.9606 26.0107 26.1151C26.0107 26.54 26.1746 26.6431 27.8685 27.2869C28.7003 27.6023 29.4046 27.8856 29.4289 27.9049C29.4653 27.9436 29.9571 31.1884 29.9571 31.4201C29.9571 31.4652 30.036 31.5875 30.1332 31.697C30.3396 31.9287 30.6189 31.9609 30.88 31.7807C30.971 31.7227 31.4993 31.0532 32.0518 30.2999C32.6103 29.5531 33.0839 28.935 33.1082 28.935C33.1386 28.935 33.8914 29.0702 34.79 29.2312C35.6825 29.3921 36.4839 29.5016 36.5629 29.4823C36.8179 29.4179 37 29.1604 37 28.8706C37 28.6389 36.8907 28.4393 36.0589 27.1324C35.5428 26.3212 35.1178 25.6323 35.1178 25.6001C35.1178 25.5743 35.4457 24.879 35.8464 24.0614C36.2471 23.2502 36.6054 22.4905 36.6418 22.3875C36.7329 22.0913 36.5811 21.7501 36.3018 21.6213C36.0832 21.5248 36.0407 21.5376 34.4743 22.0141C33.5939 22.278 32.8411 22.4969 32.7986 22.4969C32.7561 22.4969 32.1611 21.9046 31.475 21.1771C30.1514 19.78 30.121 19.7607 29.7325 19.9217Z M27.0774 15.0158C27.1798 15.3004 27.0312 15.6138 26.7455 15.7158C19.5271 18.2938 14.4771 21.9398 12.1912 24.8442C11.6221 25.5673 11.2383 26.2269 11.0295 26.7962C10.8195 27.3689 10.8007 27.8094 10.8979 28.1274C11.0679 28.6834 11.7547 29.2264 13.628 29.1597C13.9313 29.1489 14.1859 29.3851 14.1967 29.6872C14.2076 29.9894 13.9705 30.243 13.6672 30.2538C11.6943 30.324 10.2519 29.7721 9.84666 28.4464C9.65629 27.8236 9.73838 27.1265 9.99732 26.4205C10.2575 25.7111 10.7108 24.9509 11.3264 24.1686C13.7797 21.0515 19.0323 17.3075 26.3747 14.6852C26.6604 14.5832 26.9749 14.7312 27.0774 15.0158Z M15.1972 17.3506C15.3708 17.5986 15.3098 17.9398 15.061 18.1128C12.1596 20.1294 10.1335 22.3603 9.04245 24.4198C7.94523 26.4909 7.83388 28.2964 8.56205 29.5732C9.2862 30.8429 10.9602 31.7972 13.9152 31.8967C16.8619 31.9959 20.9746 31.2344 26.365 29.195C26.6487 29.0877 26.9661 29.2298 27.0738 29.5124C27.1815 29.7951 27.0389 30.1112 26.7552 30.2185C21.2937 32.2847 17.027 33.0969 13.8781 32.9909C10.7374 32.8851 8.59951 31.855 7.60658 30.114C6.61767 28.3801 6.88407 26.1484 8.07057 23.9088C9.26327 21.6574 11.4268 19.3038 14.4322 17.2149C14.6811 17.0419 15.0236 17.1027 15.1972 17.3506Z M22.6694 27.8489C22.789 28.1268 22.6598 28.4486 22.3808 28.5677C20.3927 29.4166 18.9633 29.6991 16.7379 29.9762C16.4368 30.0137 16.1621 29.8009 16.1245 29.501C16.0869 29.201 16.3005 28.9274 16.6016 28.8899C18.7719 28.6196 20.0899 28.3547 21.948 27.5614C22.2269 27.4423 22.5499 27.571 22.6694 27.8489Z M27.6309 10.3744C27.7268 10.6613 27.5712 10.9713 27.2834 11.0669C24.0442 12.1425 21.3409 13.4858 17.2492 16.2034C16.9968 16.3711 16.6556 16.3031 16.4873 16.0516C16.3189 15.8 16.3872 15.4601 16.6397 15.2924C20.79 12.5359 23.5814 11.1422 26.9358 10.0282C27.2237 9.93264 27.5349 10.0876 27.6309 10.3744Z M88.207 33.09C86.207 33.09 85.207 31.22 85.207 27.48C85.207 25.44 85.457 23.59 85.957 21.93C86.737 19.37 87.617 18.09 88.597 18.09C89.177 18.09 89.637 18.48 89.977 19.26C90.257 19.86 90.387 20.45 90.367 21.03C90.367 21.83 90.127 23.24 89.647 25.26C89.187 27.02 88.957 28.11 88.957 28.53C88.957 28.95 89.057 29.24 89.257 29.4C89.477 29.56 89.727 29.64 90.007 29.64C90.307 29.64 90.677 29.45 91.117 29.07C91.409 28.8178 91.701 28.5525 91.9929 28.2739C92.1076 27.8144 92.2858 27.3798 92.5275 26.97C93.0075 26.19 93.5175 25.8 94.0575 25.8C94.3775 25.8 94.6075 25.92 94.7475 26.16C94.8875 26.38 95.1475 27.04 95.5275 28.14C95.6675 28.54 95.8975 28.92 96.2175 29.28C96.9575 30.1 98.1275 30.51 99.7275 30.51C99.4875 29.75 99.0975 29.1 98.5575 28.56C98.0375 28 97.5175 27.46 96.9975 26.94C96.4775 26.42 96.0175 25.87 95.6175 25.29C95.2175 24.69 95.0175 23.99 95.0175 23.19C95.0175 21.75 95.5575 20.58 96.6375 19.68C97.6575 18.88 98.8375 18.48 100.177 18.48C101.517 18.46 102.517 18.71 103.177 19.23C103.837 19.73 104.168 20.46 104.168 21.42C104.168 22.36 103.878 23.17 103.298 23.85C102.738 24.51 102.048 24.98 101.228 25.26C101.808 25.86 102.327 26.47 102.787 27.09C103.267 27.71 103.507 28.36 103.507 29.04C103.507 30.38 102.978 31.42 101.918 32.16C100.858 32.88 99.3775 33.24 97.4775 33.24C95.5975 33.24 94.1875 32.87 93.2475 32.13C92.939 31.8806 92.6812 31.6215 92.474 31.3528C91.1409 32.5298 89.7186 33.1089 88.207 33.09ZM101.257 21.96C101.257 22.48 100.858 23.17 100.058 24.03C99.1175 22.99 98.6475 22.09 98.6475 21.33C98.8275 21.29 99.0575 21.23 99.3375 21.15C99.6375 21.07 99.9475 21.03 100.268 21.03C100.588 21.03 100.828 21.13 100.988 21.33C101.168 21.51 101.257 21.72 101.257 21.96Z"/>
</svg>
