<?xml version="1.0" standalone="no"?>
<!DOCTYPE svg PUBLIC "-//W3C//DTD SVG 20010904//EN"
 "http://www.w3.org/TR/2001/REC-SVG-20010904/DTD/svg10.dtd">
<svg version="1.0" xmlns="http://www.w3.org/2000/svg"
 width="450.000000pt" height="450.000000pt" viewBox="0 0 450.000000 450.000000"
 preserveAspectRatio="xMidYMid meet">

<g transform="translate(0.000000,450.000000) scale(0.100000,-0.100000)"
fill="#000000" stroke="none">
<path d="M0 2250 l0 -2250 2250 0 2250 0 0 2250 0 2250 -2250 0 -2250 0 0
-2250z m2338 2162 c7 -5 -30 -8 -83 -6 -53 1 -99 5 -102 8 -10 9 170 7 185 -2z
m-243 -8 c-5 -2 -62 -14 -125 -28 -86 -18 -145 -38 -234 -80 -96 -45 -200
-109 -236 -146 -3 -3 -25 -23 -50 -44 -79 -71 -157 -169 -209 -266 -48 -92
-123 -276 -140 -350 -5 -19 -19 -72 -31 -118 -12 -46 -23 -97 -25 -115 -2 -18
-13 -86 -26 -152 -12 -66 -25 -151 -29 -190 -53 -527 -65 -959 -30 -1120 11
-49 27 -124 35 -165 10 -50 35 -116 76 -198 74 -149 152 -235 269 -299 117
-64 203 -86 315 -81 109 5 109 5 21 -81 l-55 -54 -48 8 c-140 24 -235 -12
-304 -115 -36 -53 -36 -55 -23 -93 8 -22 14 -45 14 -51 -1 -6 -22 -28 -48 -48
-26 -21 -67 -56 -92 -78 -25 -22 -50 -40 -56 -40 -28 0 -265 193 -364 296
-307 322 -503 719 -577 1169 -24 147 -23 452 1 620 40 281 126 526 266 765
296 502 758 853 1315 1000 59 15 170 36 285 53 34 6 118 6 105 1z m442 -9
c463 -65 897 -285 1223 -621 177 -182 290 -343 396 -561 148 -303 214 -597
214 -950 0 -194 -18 -340 -66 -522 -81 -310 -217 -576 -423 -826 -106 -127
-400 -393 -421 -380 -5 3 -11 20 -15 38 -29 146 -129 340 -221 429 -117 112
-260 210 -354 241 -57 19 -137 36 -170 37 -57 1 -63 9 -52 71 6 30 16 91 23
137 l13 83 109 110 c60 60 112 109 115 109 4 0 20 -16 35 -35 15 -19 47 -45
70 -58 l42 -22 -40 -3 c-78 -7 -102 -72 -38 -102 24 -11 33 -22 33 -39 0 -35
37 -71 72 -71 36 0 78 40 78 75 0 18 5 25 20 25 22 0 60 36 60 57 0 8 -11 25
-25 39 -20 20 -32 24 -55 19 -41 -9 -38 3 4 20 41 17 78 64 96 119 25 76 -6
205 -86 356 l-36 69 22 112 c15 75 23 155 25 238 l1 126 42 41 c23 23 42 50
42 60 0 11 -14 41 -31 67 -25 40 -33 47 -52 41 -12 -3 -26 -10 -31 -15 -21
-19 -43 -7 -63 35 -12 24 -49 73 -83 109 -48 52 -80 75 -153 111 -82 41 -102
46 -182 52 -163 11 -268 56 -344 149 -68 82 -71 101 -71 423 l0 285 63 -6
c153 -16 367 -125 585 -299 144 -115 160 -122 126 -55 -64 124 -276 318 -427
392 -40 19 -107 44 -150 55 -43 10 -108 37 -146 60 -38 22 -76 40 -83 40 -14
0 -63 -18 -188 -69 -41 -17 -83 -30 -93 -31 -36 0 -204 -92 -299 -163 -179
-133 -314 -320 -417 -573 -29 -72 -58 -100 -48 -48 24 136 128 384 196 468 17
21 31 43 31 47 0 18 188 197 260 248 314 221 682 262 984 109 231 -117 406
-305 548 -590 107 -215 166 -432 188 -693 16 -183 -2 -1106 -25 -1320 -10 -92
-11 -123 -2 -131 15 -15 173 -29 181 -16 3 5 -1 28 -8 53 -27 90 -38 251 -33
529 11 772 7 949 -28 1180 -63 420 -227 740 -470 919 -128 94 -418 210 -532
212 -40 0 -94 17 -61 18 10 1 66 -6 125 -14z m-347 -618 c0 -320 -4 -349 -61
-432 -60 -90 -160 -158 -251 -171 -70 -10 -134 -31 -184 -60 -82 -48 -154
-133 -154 -183 0 -23 1 -22 40 12 68 63 162 101 289 118 42 6 96 19 120 30 62
27 162 133 201 213 l33 67 29 -52 c37 -68 51 -83 121 -131 77 -53 123 -67 243
-78 163 -14 259 -56 350 -152 123 -129 156 -272 119 -520 -21 -138 -57 -252
-121 -381 -54 -110 -153 -247 -220 -306 -43 -38 -48 -34 -58 46 -12 91 -81
282 -171 468 -93 192 -129 268 -180 381 -35 76 -67 109 -94 95 -9 -5 -30 -6
-47 -4 -38 6 -52 -14 -114 -165 -29 -70 -51 -109 -70 -122 -39 -28 -112 -42
-161 -31 -54 12 -139 71 -190 132 -69 83 -90 59 -40 -46 38 -79 90 -138 147
-165 40 -20 57 -22 129 -17 l84 5 -19 -47 c-10 -25 -45 -109 -77 -186 -33 -77
-73 -173 -89 -212 -16 -40 -34 -73 -41 -73 -17 0 -97 101 -139 177 -66 118
-111 258 -150 468 -21 116 -20 115 -40 115 -15 0 -16 -12 -11 -122 3 -68 11
-149 18 -180 l12 -58 -55 -53 c-70 -67 -98 -136 -98 -240 1 -94 23 -144 84
-186 25 -18 46 -34 46 -38 0 -3 -16 -2 -36 1 -51 10 -86 -14 -82 -57 2 -25 10
-35 35 -47 24 -11 33 -22 33 -41 0 -43 22 -62 72 -63 56 -1 78 16 78 60 0 26
4 34 18 34 32 0 62 29 62 60 0 39 -37 64 -82 56 l-33 -6 32 15 c31 14 74 63
86 98 9 24 14 20 79 -60 54 -66 56 -70 57 -132 2 -81 14 -164 47 -314 15 -65
24 -120 21 -123 -28 -28 -262 -34 -328 -8 -167 66 -300 250 -366 511 l-28 108
0 445 c0 454 4 519 41 633 9 27 17 47 19 45 2 -2 6 -37 10 -78 17 -199 84
-433 147 -522 26 -37 42 -35 68 8 l23 36 -41 86 c-70 150 -91 253 -99 465 -9
241 19 395 104 582 102 223 257 391 454 490 124 63 219 89 342 94 l37 1 0
-293z m190 -1403 c44 -99 80 -184 80 -189 0 -19 -21 14 -72 115 -67 130 -85
158 -109 165 -16 5 -19 16 -19 73 l0 67 20 -25 c11 -14 56 -106 100 -206z
m-190 156 c0 -55 -2 -61 -25 -70 -27 -10 -37 -29 -85 -160 -61 -163 -91 -265
-93 -315 -2 -49 -1 -50 27 -50 29 0 29 0 67 145 41 159 82 276 95 272 5 -1 10
-292 11 -646 l3 -645 -29 -63 c-16 -35 -46 -85 -67 -113 -64 -81 -297 -315
-321 -321 -25 -7 -116 32 -167 71 -19 14 -40 39 -47 56 l-12 31 181 181 c134
134 182 189 182 206 0 13 -19 114 -42 225 -35 169 -42 219 -42 316 1 133 -5
115 154 480 57 129 117 269 135 310 61 141 65 150 70 150 3 0 5 -27 5 -60z
m197 -356 c53 -99 116 -216 139 -260 82 -153 88 -226 43 -503 -40 -241 0 -381
125 -439 56 -27 272 -177 278 -194 18 -49 -71 -162 -163 -209 -32 -16 -67 -29
-76 -29 -24 0 -222 177 -296 265 -72 86 -143 203 -162 270 -13 43 -15 137 -13
580 l3 530 23 -48 c13 -26 33 -87 45 -135 21 -81 24 -87 50 -90 17 -2 29 2 33
12 11 29 -25 153 -84 286 -33 74 -58 139 -55 143 7 12 6 14 110 -179z m87 -20
c3 -8 2 -12 -4 -9 -6 3 -10 10 -10 16 0 14 7 11 14 -7z m661 -101 c17 -44 28
-94 32 -149 6 -80 5 -83 -21 -109 -23 -23 -33 -26 -63 -22 -36 6 -76 36 -94
70 -8 14 2 42 39 120 27 56 53 114 56 130 4 15 10 27 15 27 5 0 21 -30 36 -67z
m-1636 -13 c12 -30 31 -73 43 -95 18 -36 18 -44 6 -79 -18 -53 -53 -77 -97
-68 -48 10 -74 49 -79 120 -3 48 0 67 22 110 26 50 65 88 76 74 4 -4 17 -32
29 -62z m-119 -400 c0 -5 -4 -10 -10 -10 -5 0 -10 5 -10 10 0 6 5 10 10 10 6
0 10 -4 10 -10z m155 0 c3 -5 -1 -10 -9 -10 -9 0 -16 5 -16 10 0 6 4 10 9 10
6 0 13 -4 16 -10z m1645 -20 c0 -5 -5 -10 -11 -10 -5 0 -7 5 -4 10 3 6 8 10
11 10 2 0 4 -4 4 -10z m-1715 -59 c7 -12 -12 -24 -25 -16 -11 7 -4 25 10 25 5
0 11 -4 15 -9z m1408 -406 c127 -55 255 -171 350 -317 48 -73 137 -263 137
-292 0 -19 -2 -18 -24 9 -13 17 -35 42 -49 57 -14 15 -33 51 -42 80 -24 70
-67 133 -116 165 -34 23 -46 25 -93 19 -52 -6 -56 -4 -103 32 -26 21 -92 68
-145 105 -91 63 -148 117 -148 138 0 5 9 18 21 30 18 18 28 20 78 14 31 -4 91
-22 134 -40z m-573 -308 c72 -105 152 -205 176 -222 22 -15 39 -65 49 -147 4
-29 16 -59 31 -77 l24 -29 -40 -58 c-22 -32 -51 -81 -65 -110 l-25 -52 -100
-7 c-98 -7 -306 1 -369 14 -29 5 -34 13 -56 76 l-24 69 20 19 c48 45 62 134
33 207 -17 41 -17 41 12 72 76 82 112 125 132 156 35 56 134 172 143 166 5 -3
32 -38 59 -77z m-846 -30 c-12 -85 85 -237 189 -295 82 -46 116 -54 183 -43
74 12 85 3 59 -46 -14 -24 -34 -43 -63 -55 -41 -18 -45 -19 -115 -2 -105 25
-163 58 -241 136 -101 103 -150 225 -115 289 12 24 67 59 91 59 15 0 17 -7 12
-43z m1622 -103 c-7 -72 -26 -112 -75 -164 -66 -70 -49 -82 36 -25 55 37 82
69 103 125 19 51 28 57 39 27 7 -18 7 -36 1 -53 -6 -14 -10 -36 -10 -48 0 -30
-45 -114 -78 -147 -39 -37 -112 -84 -151 -97 -49 -17 -156 -15 -192 3 -16 9
-43 34 -60 57 l-30 42 63 19 c92 26 146 54 202 100 57 48 123 144 132 193 10
53 26 28 20 -32z m-1674 -257 c48 -47 97 -83 137 -102 33 -16 61 -32 61 -35 0
-4 -13 -19 -30 -35 l-29 -28 -63 23 c-92 33 -290 130 -286 140 3 8 126 110
132 110 2 0 37 -33 78 -73z m1896 37 c23 -19 42 -39 42 -43 0 -7 -231 -131
-245 -131 -4 0 18 28 50 61 31 34 66 82 78 105 11 24 24 44 27 44 4 0 25 -16
48 -36z m-1560 -266 c-9 -18 -39 -24 -52 -11 -4 4 6 19 21 34 24 22 29 24 34
10 4 -9 2 -24 -3 -33z m110 -5 c13 -41 10 -48 -13 -40 -9 4 -15 19 -15 42 0
46 14 45 28 -2z m934 7 c36 0 8 -18 -39 -26 -43 -7 -43 -7 -43 25 l0 32 30
-16 c16 -8 39 -15 52 -15z m-176 -27 c-2 -17 -10 -29 -20 -31 -16 -4 -16 -2
-1 27 19 38 24 39 21 4z"/>
<path d="M2166 3029 c-19 -22 -25 -38 -20 -53 22 -79 154 -71 154 9 0 35 -42
75 -79 75 -20 0 -37 -9 -55 -31z"/>
<path d="M2872 2770 c-94 -49 -224 -90 -319 -101 -104 -11 -113 -15 -113 -48
0 -41 17 -51 90 -51 129 0 273 59 376 153 60 55 80 88 52 86 -7 0 -46 -18 -86
-39z"/>
<path d="M1560 2771 c0 -32 172 -135 293 -175 102 -34 154 -35 169 -2 24 54 6
64 -179 101 -74 15 -154 38 -191 55 -66 31 -92 37 -92 21z"/>
<path d="M2916 2585 c-116 -176 -196 -209 -388 -160 -22 6 -28 4 -28 -8 0 -34
116 -97 179 -97 103 0 201 71 255 183 61 125 48 181 -18 82z"/>
</g>
</svg>
