<svg xmlns="http://www.w3.org/2000/svg" width="44" height="44" fill="none"><path fill="#505050" fill-rule="evenodd" d="M21.595 14.933c-.823-2.331-3.92-2.789-5.383-.795-1.374 1.874-.253 4.523 2.022 4.862H16a1 1 0 0 0-1 1v4a1 1 0 0 0 1 1l.944 5.141a1 1 0 0 0 .99.859h9.132a1 1 0 0 0 .99-.859L29 25a1 1 0 0 0 1-1v-4a1 1 0 0 0-1-1h-2.234c2.275-.34 3.396-2.988 2.022-4.862-1.462-1.994-4.56-1.536-5.383.795l-.905 2.565-.905-2.565Zm-.943.333c-.556-1.574-2.646-1.883-3.633-.537-.942 1.284-.149 3.105 1.432 3.291l3.31.39-1.109-3.144Zm3.696 0c.556-1.574 2.646-1.883 3.633-.537.942 1.284.149 3.105-1.432 3.291l-3.31.39 1.109-3.144ZM23 20v4h6v-4h-6Zm-1 0h-6v4h6v-4Zm-4.066 10H22v-3.5a.5.5 0 0 1 1 0V30h4.066l.924-5H17.01l.924 5Z" clip-rule="evenodd"/></svg>