<svg width="44" height="44" viewBox="0 0 44 44" fill="none" xmlns="http://www.w3.org/2000/svg">
<path fill-rule="evenodd" clip-rule="evenodd" d="M32 22C32 27.5228 27.5228 32 22 32C16.4772 32 12 27.5228 12 22C12 16.4772 16.4772 12 22 12C27.5228 12 32 16.4772 32 22ZM17.1466 26.8537C17.3419 27.049 17.6585 27.049 17.8537 26.8537L28.7037 15.9948C30.1316 17.5877 31 19.6924 31 22C31 26.9706 26.9706 31 22 31C17.0294 31 13 26.9706 13 22C13 17.0294 17.0294 13 22 13C24.3055 13 26.4084 13.8669 28.0008 15.2924L17.1466 26.1466C16.9514 26.3419 16.9514 26.6585 17.1466 26.8537Z" fill="#505050"/>
</svg>
