<svg width="44" height="44" viewBox="0 0 44 44" fill="none" xmlns="http://www.w3.org/2000/svg">
<path fill-rule="evenodd" clip-rule="evenodd" d="M13.995 21.9976C13.995 17.5801 17.5775 13.9976 21.995 13.9976C24.315 13.9976 26.4925 15.0076 27.995 16.7101V14.4976C27.995 13.8401 28.995 13.8401 28.995 14.4976V18.9976H24.495C23.8375 18.9976 23.8375 17.9976 24.495 17.9976H27.74C27.0959 17.0707 26.2368 16.3136 25.2364 15.7912C24.2359 15.2687 23.1237 14.9964 21.995 14.9976C18.1275 14.9976 14.9925 18.1326 14.9925 21.9976V22.4976C14.9925 23.1576 13.995 23.1526 13.995 22.4976V21.9976V21.9976ZM29.995 21.9926C29.995 26.4101 26.4125 29.9926 21.995 29.9926C19.675 29.9926 17.4975 28.9826 15.995 27.2776V29.4926C15.995 30.1476 14.995 30.1476 14.995 29.4926V24.9926H19.495C20.1525 24.9926 20.1525 25.9901 19.495 25.9901H16.25C16.8936 26.9176 17.7524 27.6754 18.753 28.1983C19.7536 28.7212 20.866 28.9938 21.995 28.9926C25.86 28.9926 28.995 25.8576 28.995 21.9926V21.4901C28.9975 20.8326 29.995 20.8376 29.995 21.4926V21.9926Z" fill="#505050"/>
</svg>
