<svg width="44" height="44" viewBox="0 0 44 44" fill="none" xmlns="http://www.w3.org/2000/svg">
<path fill-rule="evenodd" clip-rule="evenodd" d="M34.5 3C34.7761 3 35 3.22386 35 3.5V10H28.5C28.2239 10 28 9.77614 28 9.5C28 9.22386 28.2239 9 28.5 9H33.2152C30.1195 6.39786 25.9013 5 21.5 5C16.6396 5 12.0024 6.70475 8.85355 9.85355C8.65829 10.0488 8.34171 10.0488 8.14645 9.85355C7.95118 9.65829 7.95118 9.34171 8.14645 9.14645C11.5124 5.78053 16.4193 4 21.5 4C26.1663 4 30.6861 5.50194 34 8.35464V3.5C34 3.22386 34.2239 3 34.5 3ZM8 35H14.5C14.7761 35 15 35.2239 15 35.5C15 35.7761 14.7761 36 14.5 36H9.78478C12.8805 38.6021 17.0987 40 21.5 40C26.3604 40 30.9976 38.2952 34.1464 35.1464C34.3417 34.9512 34.6583 34.9512 34.8536 35.1464C35.0488 35.3417 35.0488 35.6583 34.8536 35.8536C31.4876 39.2195 26.5807 41 21.5 41C16.8337 41 12.3139 39.4981 9 36.6454V41.5C9 41.7761 8.77614 42 8.5 42C8.22386 42 8 41.7761 8 41.5V35Z" fill="#505050"/>
</svg>
