<svg width="44" height="44"><path fill-rule="evenodd" clip-rule="evenodd" d="M21.215 20.09a1.998 1.998 0 0 1 2.675-.892l1.385.694 2.78-5.622c.29-.582 1.183-.145.893.445l-2.78 5.622 1.722.863c.96.48 1.107 1.338 1.107 2.3.008 1.5-.492 4.003-2.232 6.503-4.14 0-10.308-1.618-11.77-6.003 1.502 0 3.002-.5 4.057-1.723.29-.585 1.183-.145.893.445-.948 1.278-1.948 1.778-3.508 2.063.535.933 1.305 1.718 2.52 2.343L21 26.003l-1.02 1.6c.645.264 1.332.502 2.012.694.298.085 2.51-2.294 2.51-2.294l-.505 2.755c.823.145 1.596.23 2.236.242 1.27-1.997 1.77-4 1.77-5.5l-6.788-3.41Z"/></svg>