<svg width="44" height="44" viewBox="0 0 44 44" fill="none" xmlns="http://www.w3.org/2000/svg">
<path d="M16.1771 16.4699C15.9927 16.2855 15.6849 16.2943 15.4896 16.4896C15.2944 16.6848 15.2856 16.9926 15.47 17.177L20.7929 22.5L15.47 27.8229C15.2856 28.0073 15.2944 28.3151 15.4896 28.5104C15.6849 28.7056 15.9927 28.7144 16.1771 28.53L21.5 23.2071L26.823 28.53C27.0074 28.7144 27.3152 28.7056 27.5104 28.5104C27.7057 28.3151 27.7145 28.0073 27.5301 27.8229L22.2071 22.5L27.5301 17.177C27.7145 16.9926 27.7057 16.6848 27.5104 16.4896C27.3152 16.2943 27.0074 16.2855 26.823 16.4699L21.5 21.7929L16.1771 16.4699Z" fill="#505050"/>
</svg>
