<svg width="44" height="44" viewBox="0 0 44 44" fill="none" xmlns="http://www.w3.org/2000/svg">
<path fill-rule="evenodd" clip-rule="evenodd" d="M16.9597 30.1102C17.0158 30.6167 17.4439 31 17.9536 31H25.0371C25.5468 31 25.9749 30.6167 26.031 30.1102L26.8882 20.3765L27.4867 20.5373C28.0186 20.6802 28.5652 20.3637 28.7077 19.8306L28.9658 18.8652C29.1083 18.332 28.7927 17.784 28.2608 17.6411L24.86 16.9962L24.9052 16.8271C25.1902 15.7608 24.559 14.6647 23.4953 14.379L22.3398 14.0686C21.2761 13.7829 20.1828 14.4157 19.8978 15.482L19.8526 15.6512L16.5133 15.0228C15.9814 14.88 15.4348 15.1964 15.2923 15.7295L15.0342 16.6949C14.8917 17.2281 15.2073 17.7761 15.7392 17.919L20.7841 19.0055H15.9506L16.9597 30.1102ZM17.0644 20.005L17.9506 30.0005H25.0401L25.9141 20.1149L25.5169 20.005H17.0644ZM16.2552 15.9882L15.9972 16.9536L27.7448 19.5719L28.0028 18.6065L16.2552 15.9882ZM23.2373 15.3444L22.0818 15.034C21.55 14.8911 21.0033 15.2075 20.8608 15.7407L20.8156 15.9099L23.897 16.7376L23.9422 16.5684C24.0847 16.0353 23.7691 15.4872 23.2373 15.3444Z" fill="#505050"/>
</svg>
