<svg width="44" height="44" viewBox="0 0 44 44" fill="none" xmlns="http://www.w3.org/2000/svg">
<path fill-rule="evenodd" clip-rule="evenodd" d="M21.0006 23.0034H22.5002C23.16 23.0034 23.16 22.001 22.5002 22.001H20.4632L15.2946 14.9996H27.501C28.1608 14.9996 28.1608 13.9972 27.501 13.9972H14.9997V12.9999H30.0003V14.3112C30.0003 14.5276 29.9301 14.7382 29.8002 14.9113L23.9994 22.6434V32.0019L21.612 30.3194C21.5711 30.2906 21.5276 30.2657 21.4847 30.2401C21.1844 30.0608 20.9981 29.7372 20.9981 29.3837C20.9986 27.4791 21.0006 24.1804 21.0006 23.0034ZM24.9992 23.0009L30.6 15.5329C30.8597 15.1867 31 14.7656 31 14.3329V12.9999C31 12.4499 30.5526 12 30.0003 12H14.9997C14.4474 12 14 12.4499 14 12.9999V14.3329C14 14.7656 14.1404 15.1867 14.4 15.5329L20.0008 23.0009C20.0008 24.1965 19.9992 27.0266 19.9986 29.2109C19.9984 29.8926 20.3451 30.5231 20.9111 30.8895C21.0048 30.9502 21.1001 31.0091 21.1885 31.0774L23.2921 32.7043C24.1016 33.3242 24.9992 32.8868 24.9992 31.9969V23.0009Z" fill="#505050"/>
</svg>
