<svg width="44" height="44" viewBox="0 0 44 44" fill="none" xmlns="http://www.w3.org/2000/svg">
<path d="M23 31.5C23 32.3284 22.3284 33 21.5 33C20.6716 33 20 32.3284 20 31.5C20 30.6716 20.6716 30 21.5 30C22.3284 30 23 30.6716 23 31.5ZM23 22.5C23 23.3284 22.3284 24 21.5 24C20.6716 24 20 23.3284 20 22.5C20 21.6716 20.6716 21 21.5 21C22.3284 21 23 21.6716 23 22.5ZM23 13.5C23 14.3284 22.3284 15 21.5 15C20.6716 15 20 14.3284 20 13.5C20 12.6716 20.6716 12 21.5 12C22.3284 12 23 12.6716 23 13.5Z" fill="#505050"/>
</svg>
