<svg width="44" height="44" viewBox="0 0 44 44" fill="none" xmlns="http://www.w3.org/2000/svg">
<path fill-rule="evenodd" clip-rule="evenodd" d="M19.0001 20H25.0001V17C25.0001 15.3425 23.6551 14 22.0001 14C20.3426 14 19.0001 15.3425 19.0001 17V20ZM18.0001 20V17C18.0001 14.7925 19.7926 13 22.0001 13C24.2076 13 26.0001 14.7925 26.0001 17V20H28.0001C28.5524 20 29.0001 20.4477 29.0001 21V29C29.0001 29.5523 28.5524 30 28.0001 30H16C15.4477 30 15 29.5523 15 29L15.0001 21C15.0001 20.4477 15.4478 20 16.0001 20H18.0001ZM28.0001 21H16.0001V29H28.0001V21ZM23.0001 24V26C23.0001 26.5523 22.5524 27 22.0001 27C21.4478 27 21.0001 26.5523 21.0001 26V24C21.0001 23.4477 21.4478 23 22.0001 23C22.5524 23 23.0001 23.4477 23.0001 24Z" fill="#505050"/>
</svg>
