<svg width="44" height="44" viewBox="0 0 44 44" fill="none" xmlns="http://www.w3.org/2000/svg">
<path fill-rule="evenodd" clip-rule="evenodd" d="M27.1464 18.1464C27.3417 17.9512 27.6583 17.9512 27.8536 18.1464L32.2071 22.5L27.8536 26.8536C27.6583 27.0488 27.3417 27.0488 27.1464 26.8536C26.9512 26.6583 26.9512 26.3417 27.1464 26.1464L30.2929 23H18.5C18.2239 23 18 22.7761 18 22.5C18 22.2239 18.2239 22 18.5 22H30.2929L27.1464 18.8536C26.9512 18.6583 26.9512 18.3417 27.1464 18.1464ZM11 17C11 14.7909 12.7909 13 15 13H20.5C20.7761 13 21 13.2239 21 13.5C21 13.7761 20.7761 14 20.5 14H15C13.3431 14 12 15.3431 12 17V28C12 29.6569 13.3431 31 15 31H20.5C20.7761 31 21 31.2239 21 31.5C21 31.7761 20.7761 32 20.5 32H15C12.7909 32 11 30.2091 11 28V17Z" fill="#505050"/>
</svg>
