<svg width="44" height="44" viewBox="0 0 44 44" fill="none" xmlns="http://www.w3.org/2000/svg">
<path d="M24.4719 30C24.2111 30 23.9997 30.2239 23.9997 30.5C23.9997 30.7761 24.2111 31 24.4719 31H28.9997V35.5278C28.9997 35.7886 29.2235 36 29.4997 36C29.7758 36 29.9997 35.7886 29.9997 35.5278V31L34.5275 31C34.7883 31 34.9997 30.7761 34.9997 30.5C34.9997 30.2239 34.7883 30 34.5275 30L29.9997 30V25.4722C29.9997 25.2114 29.7758 25 29.4997 25C29.2235 25 28.9997 25.2114 28.9997 25.4722V30H24.4719ZM17.595 11.9334C16.772 9.60181 13.6744 9.14401 12.2122 11.1379C10.8379 13.0119 11.9592 15.6606 14.2339 16H12C11.4477 16 11 16.4477 11 17V21C11 21.5523 11.4477 22 12 22L12.9437 28.1414C13.0141 28.6341 13.436 29 13.9336 29H20.5C20.7761 29 21 28.7761 21 28.5C21 28.2239 20.7761 28 20.5 28L19 28V23C19 22.7239 18.7761 22.5 18.5 22.5C18.2239 22.5 18 22.7239 18 23V28H13.9336L13.0102 22H23.9898L23.3089 26.4242C23.2623 26.7269 23.4965 27 23.8028 27C24.0496 27 24.2594 26.82 24.2968 26.5761L25 22C25.5523 22 26 21.5523 26 21V17C26 16.4477 25.5523 16 25 16H22.7661C25.0408 15.6606 26.1621 13.0119 24.7878 11.1379C23.3256 9.14401 20.228 9.60181 19.405 11.9334L18.5 14.4977L17.595 11.9334ZM16.652 12.2662C16.0965 10.6924 14.0056 10.3834 13.0186 11.7292C12.0774 13.0126 12.8702 14.8342 14.4508 15.0202L17.7614 15.4097L16.652 12.2662ZM20.348 12.2662C20.9035 10.6924 22.9944 10.3834 23.9814 11.7292C24.9226 13.0126 24.1298 14.8342 22.5492 15.0202L19.2386 15.4097L20.348 12.2662ZM19 17V21H25V17H19ZM18 17H12V21H18V17Z" fill="#505050"/>
</svg>
