<svg width="44" height="44" viewBox="0 0 44 44" fill="none" xmlns="http://www.w3.org/2000/svg">
<path d="M24.4722 30.0018C24.2114 30.0018 24 30.2256 24 30.5017C24 30.7777 24.2114 31.0015 24.4722 31.0015H29V35.5279C29 35.7886 29.2239 36 29.5 36C29.7761 36 30 35.7886 30 35.5279V31.0015H34.5278C34.7886 31.0015 35 30.7777 35 30.5017C35 30.2256 34.7886 30.0018 34.5278 30.0018H30V25.4754C30 25.2147 29.7761 25.0034 29.5 25.0034C29.2239 25.0034 29 25.2147 29 25.4754V30.0018H24.4722ZM16.0003 16.5061C16.0003 16.23 16.2242 16.0063 16.5003 16.0063H19.5003C19.7765 16.0063 20.0003 16.23 20.0003 16.5061C20.0003 16.7822 19.7765 17.0059 19.5003 17.0059H16.5003C16.2242 17.0059 16.0003 16.7822 16.0003 16.5061ZM16.0003 22.5043C16.0003 22.2282 16.2242 22.0044 16.5003 22.0044H19.5003C19.7765 22.0044 20 22.2281 20 22.5041C20 22.7802 19.7765 23.0041 19.5003 23.0041H16.5003C16.2242 23.0041 16.0003 22.7803 16.0003 22.5043ZM16.0003 19.5052C16.0003 19.2291 16.2242 19.0053 16.5003 19.0053H18.5003C18.7765 19.0053 19.0003 19.2291 19.0003 19.5052C19.0003 19.7812 18.7765 20.005 18.5003 20.005H16.5003C16.2242 20.005 16.0003 19.7812 16.0003 19.5052ZM16.5003 16.0063C16.2242 16.0063 16.0003 16.23 16.0003 16.5061C16.0003 16.7822 16.2242 17.0059 16.5003 17.0059H19.5003C19.7765 17.0059 20.0003 16.7822 20.0003 16.5061C20.0003 16.23 19.7765 16.0063 19.5003 16.0063H16.5003ZM16.5003 22.0044C16.2242 22.0044 16.0003 22.2282 16.0003 22.5043C16.0003 22.7803 16.2242 23.0041 16.5003 23.0041H19.5003C19.7765 23.0041 20 22.7802 20 22.5041C20 22.2281 19.7765 22.0044 19.5003 22.0044H16.5003ZM16.5003 19.0053C16.2242 19.0053 16.0003 19.2291 16.0003 19.5052C16.0003 19.7812 16.2242 20.005 16.5003 20.005H18.5003C18.7765 20.005 19.0003 19.7812 19.0003 19.5052C19.0003 19.2291 18.7765 19.0053 18.5003 19.0053H16.5003ZM12 12.0073L21 12C22.1 12 22.9975 12.9095 23 14.0067V24.996L24 25.0034C25.1025 25.0034 26 25.9031 26 27.0027C26 27.2788 25.7761 27.5026 25.5 27.5026C25.2239 27.5026 25 27.2788 25 27.0027C25 26.4529 24.5525 25.9932 24 25.9932H16.7344C16.9128 26.2971 17 26.6504 17 27.0027C17 27.3651 16.9044 27.7002 16.7344 27.9951H21C21.2761 27.9951 21.5 28.2262 21.5 28.5023C21.5 28.7783 21.2761 29.0021 21 29.0021L15 28.9948C13.9 28.9923 13 28.0951 13 26.9954V16.0061H12C10.9 16.0061 10 15.1064 10 14.0067C10 12.9045 10.9 12.0073 12 12.0073ZM15.7277 27.6915C15.5461 27.8787 15.2607 27.995 15 28.0024C14.4325 28.0024 14 27.5727 14 26.9954V13.9994C14.0012 13.648 13.9084 13.3101 13.7305 13.007L21 12.9997C21.5475 12.9997 22 13.4594 22 14.0067V24.996H15V26.0031C15.5525 26.0031 16 26.4479 16 27.0027C16.0004 27.2635 15.9094 27.5044 15.7277 27.6915ZM11 14.0067C11 13.4569 11.4475 13.007 12 13.007C12.555 13.007 13 13.4544 13 14.0067V15.0064H12C11.45 15.0064 11 14.5565 11 14.0067ZM16.0003 16.5061C16.0003 16.23 16.2242 16.0063 16.5003 16.0063H19.5003C19.7765 16.0063 20.0003 16.23 20.0003 16.5061C20.0003 16.7822 19.7765 17.0059 19.5003 17.0059H16.5003C16.2242 17.0059 16.0003 16.7822 16.0003 16.5061ZM16.0003 22.5043C16.0003 22.2282 16.2242 22.0044 16.5003 22.0044H19.5003C19.7765 22.0044 20 22.2281 20 22.5041C20 22.7802 19.7765 23.0041 19.5003 23.0041H16.5003C16.2242 23.0041 16.0003 22.7803 16.0003 22.5043ZM16.0003 19.5052C16.0003 19.2291 16.2242 19.0053 16.5003 19.0053H18.5003C18.7765 19.0053 19.0003 19.2291 19.0003 19.5052C19.0003 19.7812 18.7765 20.005 18.5003 20.005H16.5003C16.2242 20.005 16.0003 19.7812 16.0003 19.5052Z" fill="#505050"/>
</svg>
