<svg width="44" height="44" viewBox="0 0 44 44" fill="none" xmlns="http://www.w3.org/2000/svg">
<path fill-rule="evenodd" clip-rule="evenodd" d="M21 23V15.0718C19.9706 15.2204 18.9828 15.5972 18.111 16.1797C16.9599 16.9489 16.0627 18.0421 15.5328 19.3212C15.003 20.6003 14.8644 22.0078 15.1345 23.3656C15.4046 24.7235 16.0713 25.9708 17.0503 26.9497C18.0292 27.9287 19.2765 28.5954 20.6344 28.8655C21.9922 29.1356 23.3997 28.997 24.6788 28.4672C25.9579 27.9373 27.0511 27.0401 27.8203 25.889C28.4028 25.0172 28.7796 24.0294 28.9282 23H21ZM29.9373 23C29.7826 24.2279 29.3444 25.408 28.6518 26.4446C27.7727 27.7602 26.5233 28.7855 25.0615 29.391C23.5997 29.9965 21.9911 30.155 20.4393 29.8463C18.8874 29.5376 17.462 28.7757 16.3431 27.6569C15.2243 26.538 14.4624 25.1126 14.1537 23.5607C13.845 22.0089 14.0035 20.4003 14.609 18.9385C15.2145 17.4767 16.2398 16.2273 17.5554 15.3482C18.592 14.6556 19.7721 14.2174 21 14.0627C21.3305 14.0211 21.6645 14 22 14V22H30C30 22.3356 29.9789 22.6695 29.9373 23ZM25.6788 14.5328C25.1394 14.3094 24.5753 14.1548 24 14.0718V20L29.9282 20C29.8452 19.4247 29.6906 18.8607 29.4672 18.3212C29.1154 17.4719 28.5998 16.7003 27.9498 16.0503C27.2997 15.4002 26.5281 14.8846 25.6788 14.5328ZM24 13.0627C24.707 13.1518 25.4004 13.3351 26.0615 13.609C27.0321 14.011 27.914 14.6003 28.6569 15.3431C29.3997 16.086 29.989 16.9679 30.391 17.9385C30.6649 18.5996 30.8482 19.293 30.9373 20C30.979 20.331 31 20.665 31 21H23V13C23.335 13 23.669 13.021 24 13.0627Z" fill="#505050"/>
</svg>
