<svg width="44" height="44" viewBox="0 0 44 44" fill="none" xmlns="http://www.w3.org/2000/svg">
<path fill-rule="evenodd" clip-rule="evenodd" d="M20.595 13.9334C19.772 11.6018 16.6744 11.144 15.2122 13.1379C13.8379 15.0119 14.9592 17.6606 17.2339 18H15C14.4477 18 14 18.4477 14 19V23C14 23.5523 14.4477 24 15 24L15.9437 30.1414C16.0141 30.6341 16.436 31 16.9336 31H26.0664C26.564 31 26.9859 30.6341 27.0563 30.1414L28 24C28.5523 24 29 23.5523 29 23V19C29 18.4477 28.5523 18 28 18H25.7661C28.0408 17.6606 29.1621 15.0119 27.7878 13.1379C26.3256 11.144 23.228 11.6018 22.405 13.9334L21.5 16.4977L20.595 13.9334ZM19.652 14.2662C19.0965 12.6924 17.0056 12.3834 16.0186 13.7292C15.0774 15.0126 15.8702 16.8342 17.4508 17.0202L20.7614 17.4097L19.652 14.2662ZM23.348 14.2662C23.9035 12.6924 25.9944 12.3834 26.9814 13.7292C27.9226 15.0126 27.1298 16.8342 25.5492 17.0202L22.2386 17.4097L23.348 14.2662ZM22 19V23H28V19H22ZM21 19H15V23H21V19ZM16.9336 30H21V25C21 24.7239 21.2239 24.5 21.5 24.5C21.7761 24.5 22 24.7239 22 25V30H26.0664L26.9898 24H16.0102L16.9336 30Z" fill="#505050"/>
</svg>
