<svg width="44" height="44" viewBox="0 0 44 44" fill="none" xmlns="http://www.w3.org/2000/svg">
<path fill-rule="evenodd" clip-rule="evenodd" d="M28.3696 15.7217C28.2826 16.0414 28.1847 16.366 28.0805 16.6794C27.2566 19.1573 25.902 21.4303 24.1067 23.3375C22.3115 25.2447 20.1245 26.7341 17.7009 27.7062C17.3918 27.8302 17.0789 27.9457 16.7624 28.0527C16.0546 28.2919 15.6531 27.3652 16.4402 27.0992C19.0816 26.2065 21.4628 24.6778 23.3739 22.6476C25.2831 20.6194 26.6665 18.1453 27.3984 15.4577C27.6022 14.7096 28.5771 14.9597 28.3696 15.7217ZM22.325 17.3931C21.1757 19.4287 19.4995 21.1172 17.4718 22.2803C16.5383 22.8158 17.1997 23.5841 17.967 23.1434C18.2551 22.9779 18.542 22.7996 18.8165 22.6148C20.3444 21.5865 21.6546 20.2668 22.6716 18.7314C22.8546 18.4551 23.0281 18.1719 23.1916 17.8821C23.6171 17.1282 22.7628 16.6177 22.325 17.3931Z" fill="#505050"/>
</svg>
