<svg width="44" height="44" viewBox="0 0 44 44" fill="none" xmlns="http://www.w3.org/2000/svg">
<path d="M31.0002 18.5001C31.0002 18.7763 30.6902 19.0001 30.3079 19.0001L26.0001 19L26 20C26 20.5523 25.5523 21 25 21H24C23.4477 21 23 20.5523 23 20V19.0001L13.6925 19.0001C13.3101 19.0001 13.0002 18.7763 13.0002 18.5001C13.0002 18.224 13.3101 18.0001 13.6925 18.0001L23 18.0001V17C23 16.4477 23.4477 16 24 16H25C25.5523 16 26 16.4477 26 17L26 18.0001L30.3079 18.0001C30.6902 18.0001 31.0002 18.224 31.0002 18.5001ZM13.0002 25.5001C13.0002 25.224 13.3101 25.0001 13.6925 25.0001H16V24C16 23.4477 16.4477 23 17 23H18C18.5523 23 19 23.4477 19 24V25.0001L30.3079 25.0001C30.6902 25.0001 31.0002 25.224 31.0002 25.5001C31.0002 25.7763 30.6902 26.0001 30.3079 26.0001L19 26.0001V27C19 27.5523 18.5523 28 18 28H17C16.4477 28 16 27.5523 16 27V26.0001H13.6925C13.3101 26.0001 13.0002 25.7763 13.0002 25.5001Z" fill="#505050"/>
</svg>
