<svg width="44" height="44" viewBox="0 0 44 44" fill="none" xmlns="http://www.w3.org/2000/svg">
<path d="M29 21.5C29 21.2239 29.2239 21 29.5 21C29.7761 21 30 21.2239 30 21.5V28.5C30 28.7761 29.7761 29 29.5 29C29.2239 29 29 28.7761 29 28.5V21.5ZM22 16.5C22 16.2239 22.2239 16 22.5 16C22.7761 16 23 16.2239 23 16.5V28.5C23 28.7761 22.7761 29 22.5 29C22.2239 29 22 28.7761 22 28.5V16.5ZM15 11.5C15 11.2239 15.2239 11 15.5 11C15.7761 11 16 11.2239 16 11.5V28.5C16 28.7761 15.7761 29 15.5 29C15.2239 29 15 28.7761 15 28.5V11.5Z" fill="#505050"/>
</svg>
