<svg width="44" height="44" viewBox="0 0 44 44" fill="none" xmlns="http://www.w3.org/2000/svg">
<path d="M16.0074 13.9926H24.9774C26.0774 13.9926 26.9749 14.8901 26.9774 15.9876L27.0024 26.9926H27.9774C29.0799 26.9926 29.9774 27.8926 29.9774 28.9926C29.9774 30.0876 29.0724 30.9926 27.9774 30.9926H19.0074C17.9074 30.9901 17.0074 30.0926 17.0074 28.9926V17.9926H16.0074C14.9074 17.9926 14.0074 17.0926 14.0074 15.9926C14.0074 14.8901 14.9074 13.9926 16.0074 13.9926ZM19.0374 29.9926C19.2982 29.9851 19.5457 29.8761 19.7274 29.6889C19.909 29.5016 20.0104 29.2509 20.0099 28.9901C20.0099 28.4351 19.5599 27.9901 19.0074 27.9901L19.0099 26.9901L26.0074 26.9926L25.9824 15.9876C25.9824 15.4401 25.5299 14.9926 24.9824 14.9926H17.7374C17.9154 15.2957 18.0086 15.6411 18.0074 15.9926V28.9926C18.0074 29.5701 18.4699 29.9926 19.0374 29.9926ZM20.7399 29.9926H27.9774C28.5349 29.9926 28.9774 29.5401 28.9774 28.9876C28.9774 28.4376 28.5299 27.9876 27.9774 27.9876L20.7374 27.9901C20.9159 28.294 21.0099 28.6401 21.0099 28.9926C21.0099 29.3551 20.9099 29.6976 20.7399 29.9926ZM16.0049 14.9926C15.4524 14.9926 15.0074 15.4426 15.0074 15.9926C15.0074 16.5426 15.4549 16.9926 16.0049 16.9926H17.0074V15.9901C17.0074 15.4376 16.5599 14.9926 16.0049 14.9926ZM20 24.5C20 24.2239 20.2238 24 20.5 24H23.5C23.7761 24 24 24.2239 24 24.5C24 24.7762 23.7761 25 23.5 25H20.5C20.2238 25 20 24.7762 20 24.5ZM20 21.5C20 21.2239 20.2238 21 20.5 21H22.5C22.7761 21 23 21.2239 23 21.5C23 21.7762 22.7761 22 22.5 22H20.5C20.2238 22 20 21.7762 20 21.5ZM20 18.5C20 18.2239 20.2238 18 20.5 18H23.5C23.7761 18 24 18.2239 24 18.5C24 18.7762 23.7761 19 23.5 19H20.5C20.2238 19 20 18.7762 20 18.5Z" fill="#505050"/>
</svg>
